<svg width="1445" height="149" viewBox="0 0 1445 149" fill="none" xmlns="http://www.w3.org/2000/svg">
<path d="M47.0335 114.34C47.0335 115.02 46.9535 115.66 46.7935 116.26C46.6468 116.86 46.3802 117.387 45.9935 117.84C45.6202 118.28 45.1068 118.633 44.4535 118.9C43.8135 119.153 43.0002 119.28 42.0135 119.28C41.1068 119.28 40.3268 119.173 39.6735 118.96C39.0202 118.733 38.4802 118.473 38.0535 118.18L39.0935 115.76C39.4802 115.987 39.8935 116.187 40.3335 116.36C40.7735 116.533 41.2535 116.62 41.7735 116.62C42.5335 116.62 43.0802 116.433 43.4135 116.06C43.7468 115.687 43.9135 115.06 43.9135 114.18V105.14H47.0335V114.34ZM59.6795 113.72C59.6795 114.547 59.5595 115.307 59.3195 116C59.0795 116.68 58.7328 117.267 58.2795 117.76C57.8261 118.24 57.2795 118.613 56.6395 118.88C56.0128 119.147 55.3061 119.28 54.5195 119.28C53.7461 119.28 53.0395 119.147 52.3995 118.88C51.7728 118.613 51.2328 118.24 50.7795 117.76C50.3261 117.267 49.9728 116.68 49.7195 116C49.4661 115.307 49.3395 114.547 49.3395 113.72C49.3395 112.893 49.4661 112.14 49.7195 111.46C49.9861 110.78 50.3461 110.2 50.7995 109.72C51.2661 109.24 51.8128 108.867 52.4395 108.6C53.0795 108.333 53.7728 108.2 54.5195 108.2C55.2795 108.2 55.9728 108.333 56.5995 108.6C57.2395 108.867 57.7861 109.24 58.2395 109.72C58.6928 110.2 59.0461 110.78 59.2995 111.46C59.5528 112.14 59.6795 112.893 59.6795 113.72ZM56.6395 113.72C56.6395 112.8 56.4528 112.08 56.0795 111.56C55.7195 111.027 55.1995 110.76 54.5195 110.76C53.8395 110.76 53.3128 111.027 52.9395 111.56C52.5661 112.08 52.3795 112.8 52.3795 113.72C52.3795 114.64 52.5661 115.373 52.9395 115.92C53.3128 116.453 53.8395 116.72 54.5195 116.72C55.1995 116.72 55.7195 116.453 56.0795 115.92C56.4528 115.373 56.6395 114.64 56.6395 113.72ZM70.9679 118.64C70.4612 118.787 69.8079 118.92 69.0079 119.04C68.2079 119.173 67.3679 119.24 66.4879 119.24C65.5946 119.24 64.8479 119.12 64.2479 118.88C63.6612 118.64 63.1946 118.307 62.8479 117.88C62.5012 117.44 62.2546 116.92 62.1079 116.32C61.9612 115.72 61.8879 115.06 61.8879 114.34V108.48H64.8679V113.98C64.8679 114.94 64.9946 115.633 65.2479 116.06C65.5012 116.487 65.9746 116.7 66.6679 116.7C66.8812 116.7 67.1079 116.693 67.3479 116.68C67.5879 116.653 67.8012 116.627 67.9879 116.6V108.48H70.9679V118.64ZM79.9699 112.96C79.7033 113.973 79.4166 114.98 79.1099 115.98C78.8166 116.98 78.5033 117.987 78.1699 119H75.8499C75.6099 118.44 75.3499 117.773 75.0699 117C74.7899 116.227 74.4966 115.387 74.1899 114.48C73.8966 113.56 73.5899 112.593 73.2699 111.58C72.9633 110.553 72.6633 109.52 72.3699 108.48H75.5099C75.6166 108.96 75.7299 109.487 75.8499 110.06C75.9833 110.62 76.1166 111.2 76.2499 111.8C76.3966 112.4 76.5433 113.007 76.6899 113.62C76.8499 114.22 77.0099 114.8 77.1699 115.36C77.3433 114.773 77.5099 114.173 77.6699 113.56C77.8433 112.947 78.0033 112.347 78.1499 111.76C78.3099 111.16 78.4566 110.587 78.5899 110.04C78.7366 109.48 78.8633 108.96 78.9699 108.48H81.1299C81.2366 108.96 81.3566 109.48 81.4899 110.04C81.6233 110.587 81.7633 111.16 81.9099 111.76C82.0566 112.347 82.2099 112.947 82.3699 113.56C82.5299 114.173 82.6966 114.773 82.8699 115.36C83.0299 114.8 83.1899 114.22 83.3499 113.62C83.5099 113.007 83.6566 112.4 83.7899 111.8C83.9366 111.2 84.0699 110.62 84.1899 110.06C84.3233 109.487 84.4433 108.96 84.5499 108.48H87.6499C87.3566 109.52 87.0499 110.553 86.7299 111.58C86.4233 112.593 86.1166 113.56 85.8099 114.48C85.5166 115.387 85.2233 116.227 84.9299 117C84.6499 117.773 84.3899 118.44 84.1499 119H81.8299C81.4966 117.987 81.1699 116.98 80.8499 115.98C80.5299 114.98 80.2366 113.973 79.9699 112.96ZM103.038 118.64C102.532 118.787 101.878 118.92 101.078 119.04C100.278 119.173 99.4382 119.24 98.5582 119.24C97.6649 119.24 96.9182 119.12 96.3182 118.88C95.7315 118.64 95.2649 118.307 94.9182 117.88C94.5715 117.44 94.3249 116.92 94.1782 116.32C94.0315 115.72 93.9582 115.06 93.9582 114.34V108.48H96.9382V113.98C96.9382 114.94 97.0649 115.633 97.3182 116.06C97.5715 116.487 98.0449 116.7 98.7382 116.7C98.9515 116.7 99.1782 116.693 99.4182 116.68C99.6582 116.653 99.8715 116.627 100.058 116.6V108.48H103.038V118.64ZM108.816 119H105.836V108.48H108.816V119ZM109.096 105.44C109.096 105.987 108.916 106.42 108.556 106.74C108.209 107.047 107.796 107.2 107.316 107.2C106.836 107.2 106.416 107.047 106.056 106.74C105.709 106.42 105.536 105.987 105.536 105.44C105.536 104.893 105.709 104.467 106.056 104.16C106.416 103.84 106.836 103.68 107.316 103.68C107.796 103.68 108.209 103.84 108.556 104.16C108.916 104.467 109.096 104.893 109.096 105.44ZM111.517 105.86L114.497 105.38V108.48H118.077V110.96H114.497V114.66C114.497 115.287 114.603 115.787 114.817 116.16C115.043 116.533 115.49 116.72 116.157 116.72C116.477 116.72 116.803 116.693 117.137 116.64C117.483 116.573 117.797 116.487 118.077 116.38L118.497 118.7C118.137 118.847 117.737 118.973 117.297 119.08C116.857 119.187 116.317 119.24 115.677 119.24C114.863 119.24 114.19 119.133 113.657 118.92C113.123 118.693 112.697 118.387 112.377 118C112.057 117.6 111.83 117.12 111.697 116.56C111.577 116 111.517 115.38 111.517 114.7V105.86ZM122.653 113.66C122.653 114.58 122.86 115.32 123.273 115.88C123.686 116.44 124.3 116.72 125.113 116.72C125.38 116.72 125.626 116.713 125.853 116.7C126.08 116.673 126.266 116.647 126.413 116.62V111.2C126.226 111.08 125.98 110.98 125.673 110.9C125.38 110.82 125.08 110.78 124.773 110.78C123.36 110.78 122.653 111.74 122.653 113.66ZM129.393 118.66C129.126 118.74 128.82 118.82 128.473 118.9C128.126 118.967 127.76 119.027 127.373 119.08C127 119.133 126.613 119.173 126.213 119.2C125.826 119.24 125.453 119.26 125.093 119.26C124.226 119.26 123.453 119.133 122.773 118.88C122.093 118.627 121.52 118.267 121.053 117.8C120.586 117.32 120.226 116.747 119.973 116.08C119.733 115.4 119.613 114.64 119.613 113.8C119.613 112.947 119.72 112.18 119.933 111.5C120.146 110.807 120.453 110.22 120.853 109.74C121.253 109.26 121.74 108.893 122.313 108.64C122.9 108.387 123.566 108.26 124.313 108.26C124.726 108.26 125.093 108.3 125.413 108.38C125.746 108.46 126.08 108.573 126.413 108.72V103.96L129.393 103.48V118.66ZM136.203 116.92C136.497 116.92 136.777 116.913 137.043 116.9C137.31 116.887 137.523 116.867 137.683 116.84V114.58C137.563 114.553 137.383 114.527 137.143 114.5C136.903 114.473 136.683 114.46 136.483 114.46C136.203 114.46 135.937 114.48 135.683 114.52C135.443 114.547 135.23 114.607 135.043 114.7C134.857 114.793 134.71 114.92 134.603 115.08C134.497 115.24 134.443 115.44 134.443 115.68C134.443 116.147 134.597 116.473 134.903 116.66C135.223 116.833 135.657 116.92 136.203 116.92ZM135.963 108.2C136.843 108.2 137.577 108.3 138.163 108.5C138.75 108.7 139.217 108.987 139.563 109.36C139.923 109.733 140.177 110.187 140.323 110.72C140.47 111.253 140.543 111.847 140.543 112.5V118.7C140.117 118.793 139.523 118.9 138.763 119.02C138.003 119.153 137.083 119.22 136.003 119.22C135.323 119.22 134.703 119.16 134.143 119.04C133.597 118.92 133.123 118.727 132.723 118.46C132.323 118.18 132.017 117.82 131.803 117.38C131.59 116.94 131.483 116.4 131.483 115.76C131.483 115.147 131.603 114.627 131.843 114.2C132.097 113.773 132.43 113.433 132.843 113.18C133.257 112.927 133.73 112.747 134.263 112.64C134.797 112.52 135.35 112.46 135.923 112.46C136.31 112.46 136.65 112.48 136.943 112.52C137.25 112.547 137.497 112.587 137.683 112.64V112.36C137.683 111.853 137.53 111.447 137.223 111.14C136.917 110.833 136.383 110.68 135.623 110.68C135.117 110.68 134.617 110.72 134.123 110.8C133.63 110.867 133.203 110.967 132.843 111.1L132.463 108.7C132.637 108.647 132.85 108.593 133.103 108.54C133.37 108.473 133.657 108.42 133.963 108.38C134.27 108.327 134.59 108.287 134.923 108.26C135.27 108.22 135.617 108.2 135.963 108.2ZM145.778 113.4C145.778 115.067 146.451 115.9 147.798 115.9C148.105 115.9 148.391 115.86 148.658 115.78C148.925 115.7 149.151 115.607 149.338 115.5V110.74C149.191 110.713 149.018 110.693 148.818 110.68C148.618 110.653 148.385 110.64 148.118 110.64C147.331 110.64 146.745 110.9 146.358 111.42C145.971 111.94 145.778 112.6 145.778 113.4ZM152.318 117.68C152.318 119.4 151.878 120.673 150.998 121.5C150.131 122.34 148.785 122.76 146.958 122.76C146.318 122.76 145.678 122.7 145.038 122.58C144.398 122.473 143.805 122.327 143.258 122.14L143.778 119.64C144.245 119.827 144.731 119.973 145.238 120.08C145.758 120.187 146.345 120.24 146.998 120.24C147.851 120.24 148.451 120.053 148.798 119.68C149.158 119.307 149.338 118.827 149.338 118.24V117.86C149.018 118.007 148.685 118.12 148.338 118.2C148.005 118.267 147.638 118.3 147.238 118.3C145.785 118.3 144.671 117.873 143.898 117.02C143.125 116.153 142.738 114.947 142.738 113.4C142.738 112.627 142.858 111.927 143.098 111.3C143.338 110.66 143.685 110.113 144.138 109.66C144.605 109.207 145.171 108.86 145.838 108.62C146.505 108.367 147.258 108.24 148.098 108.24C148.458 108.24 148.825 108.26 149.198 108.3C149.585 108.327 149.965 108.367 150.338 108.42C150.711 108.473 151.065 108.54 151.398 108.62C151.745 108.687 152.051 108.76 152.318 108.84V117.68ZM158.093 119H155.113V108.48H158.093V119ZM158.373 105.44C158.373 105.987 158.193 106.42 157.833 106.74C157.486 107.047 157.073 107.2 156.593 107.2C156.113 107.2 155.693 107.047 155.333 106.74C154.986 106.42 154.813 105.987 154.813 105.44C154.813 104.893 154.986 104.467 155.333 104.16C155.693 103.84 156.113 103.68 156.593 103.68C157.073 103.68 157.486 103.84 157.833 104.16C158.193 104.467 158.373 104.893 158.373 105.44ZM160.894 108.84C161.401 108.693 162.054 108.56 162.854 108.44C163.654 108.307 164.494 108.24 165.374 108.24C166.267 108.24 167.007 108.36 167.594 108.6C168.194 108.827 168.667 109.153 169.014 109.58C169.361 110.007 169.607 110.513 169.754 111.1C169.901 111.687 169.974 112.34 169.974 113.06V119H166.994V113.42C166.994 112.46 166.867 111.78 166.614 111.38C166.361 110.98 165.887 110.78 165.194 110.78C164.981 110.78 164.754 110.793 164.514 110.82C164.274 110.833 164.061 110.853 163.874 110.88V119H160.894V108.84ZM175.211 113.4C175.211 115.067 175.885 115.9 177.231 115.9C177.538 115.9 177.825 115.86 178.091 115.78C178.358 115.7 178.585 115.607 178.771 115.5V110.74C178.625 110.713 178.451 110.693 178.251 110.68C178.051 110.653 177.818 110.64 177.551 110.64C176.765 110.64 176.178 110.9 175.791 111.42C175.405 111.94 175.211 112.6 175.211 113.4ZM181.751 117.68C181.751 119.4 181.311 120.673 180.431 121.5C179.565 122.34 178.218 122.76 176.391 122.76C175.751 122.76 175.111 122.7 174.471 122.58C173.831 122.473 173.238 122.327 172.691 122.14L173.211 119.64C173.678 119.827 174.165 119.973 174.671 120.08C175.191 120.187 175.778 120.24 176.431 120.24C177.285 120.24 177.885 120.053 178.231 119.68C178.591 119.307 178.771 118.827 178.771 118.24V117.86C178.451 118.007 178.118 118.12 177.771 118.2C177.438 118.267 177.071 118.3 176.671 118.3C175.218 118.3 174.105 117.873 173.331 117.02C172.558 116.153 172.171 114.947 172.171 113.4C172.171 112.627 172.291 111.927 172.531 111.3C172.771 110.66 173.118 110.113 173.571 109.66C174.038 109.207 174.605 108.86 175.271 108.62C175.938 108.367 176.691 108.24 177.531 108.24C177.891 108.24 178.258 108.26 178.631 108.3C179.018 108.327 179.398 108.367 179.771 108.42C180.145 108.473 180.498 108.54 180.831 108.62C181.178 108.687 181.485 108.76 181.751 108.84V117.68Z" fill="#08274C"/>
<path d="M659.38 106.62C659.54 107.167 659.714 107.787 659.9 108.48C660.1 109.16 660.307 109.867 660.52 110.6C660.747 111.333 660.974 112.067 661.2 112.8C661.427 113.533 661.647 114.213 661.86 114.84C662.034 114.16 662.207 113.42 662.38 112.62C662.567 111.82 662.74 110.993 662.9 110.14C663.06 109.287 663.214 108.44 663.36 107.6C663.52 106.747 663.667 105.927 663.8 105.14H667.04C666.574 107.46 666.034 109.813 665.42 112.2C664.82 114.587 664.167 116.853 663.46 119H660.6C660.134 117.72 659.68 116.38 659.24 114.98C658.8 113.567 658.367 112.153 657.94 110.74C657.514 112.153 657.087 113.567 656.66 114.98C656.234 116.38 655.787 117.72 655.32 119H652.46C651.754 116.853 651.094 114.587 650.48 112.2C649.88 109.813 649.347 107.46 648.88 105.14H652.26C652.394 105.927 652.54 106.747 652.7 107.6C652.86 108.44 653.027 109.287 653.2 110.14C653.374 110.993 653.547 111.82 653.72 112.62C653.907 113.42 654.094 114.16 654.28 114.84C654.52 114.187 654.754 113.493 654.98 112.76C655.207 112.027 655.427 111.293 655.64 110.56C655.854 109.827 656.047 109.12 656.22 108.44C656.407 107.76 656.574 107.153 656.72 106.62H659.38ZM667.681 113.82C667.681 112.887 667.821 112.073 668.101 111.38C668.395 110.673 668.775 110.087 669.241 109.62C669.708 109.153 670.241 108.8 670.841 108.56C671.455 108.32 672.081 108.2 672.721 108.2C674.215 108.2 675.395 108.66 676.261 109.58C677.128 110.487 677.561 111.827 677.561 113.6C677.561 113.773 677.555 113.967 677.541 114.18C677.528 114.38 677.515 114.56 677.501 114.72H670.741C670.808 115.333 671.095 115.82 671.601 116.18C672.108 116.54 672.788 116.72 673.641 116.72C674.188 116.72 674.721 116.673 675.241 116.58C675.775 116.473 676.208 116.347 676.541 116.2L676.941 118.62C676.781 118.7 676.568 118.78 676.301 118.86C676.035 118.94 675.735 119.007 675.401 119.06C675.081 119.127 674.735 119.18 674.361 119.22C673.988 119.26 673.615 119.28 673.241 119.28C672.295 119.28 671.468 119.14 670.761 118.86C670.068 118.58 669.488 118.2 669.021 117.72C668.568 117.227 668.228 116.647 668.001 115.98C667.788 115.313 667.681 114.593 667.681 113.82ZM674.681 112.68C674.668 112.427 674.621 112.18 674.541 111.94C674.475 111.7 674.361 111.487 674.201 111.3C674.055 111.113 673.861 110.96 673.621 110.84C673.395 110.72 673.108 110.66 672.761 110.66C672.428 110.66 672.141 110.72 671.901 110.84C671.661 110.947 671.461 111.093 671.301 111.28C671.141 111.467 671.015 111.687 670.921 111.94C670.841 112.18 670.781 112.427 670.741 112.68H674.681ZM687.206 113.66C687.206 114.58 687.412 115.32 687.826 115.88C688.239 116.44 688.852 116.72 689.666 116.72C689.932 116.72 690.179 116.713 690.406 116.7C690.632 116.673 690.819 116.647 690.966 116.62V111.2C690.779 111.08 690.532 110.98 690.226 110.9C689.932 110.82 689.632 110.78 689.326 110.78C687.912 110.78 687.206 111.74 687.206 113.66ZM693.946 118.66C693.679 118.74 693.372 118.82 693.026 118.9C692.679 118.967 692.312 119.027 691.926 119.08C691.552 119.133 691.166 119.173 690.766 119.2C690.379 119.24 690.006 119.26 689.646 119.26C688.779 119.26 688.006 119.133 687.326 118.88C686.646 118.627 686.072 118.267 685.606 117.8C685.139 117.32 684.779 116.747 684.526 116.08C684.286 115.4 684.166 114.64 684.166 113.8C684.166 112.947 684.272 112.18 684.486 111.5C684.699 110.807 685.006 110.22 685.406 109.74C685.806 109.26 686.292 108.893 686.866 108.64C687.452 108.387 688.119 108.26 688.866 108.26C689.279 108.26 689.646 108.3 689.966 108.38C690.299 108.46 690.632 108.573 690.966 108.72V103.96L693.946 103.48V118.66ZM696.236 113.82C696.236 112.887 696.376 112.073 696.656 111.38C696.949 110.673 697.329 110.087 697.796 109.62C698.263 109.153 698.796 108.8 699.396 108.56C700.009 108.32 700.636 108.2 701.276 108.2C702.769 108.2 703.949 108.66 704.816 109.58C705.683 110.487 706.116 111.827 706.116 113.6C706.116 113.773 706.109 113.967 706.096 114.18C706.083 114.38 706.069 114.56 706.056 114.72H699.296C699.363 115.333 699.649 115.82 700.156 116.18C700.663 116.54 701.343 116.72 702.196 116.72C702.743 116.72 703.276 116.673 703.796 116.58C704.329 116.473 704.763 116.347 705.096 116.2L705.496 118.62C705.336 118.7 705.123 118.78 704.856 118.86C704.589 118.94 704.289 119.007 703.956 119.06C703.636 119.127 703.289 119.18 702.916 119.22C702.543 119.26 702.169 119.28 701.796 119.28C700.849 119.28 700.023 119.14 699.316 118.86C698.623 118.58 698.043 118.2 697.576 117.72C697.123 117.227 696.783 116.647 696.556 115.98C696.343 115.313 696.236 114.593 696.236 113.82ZM703.236 112.68C703.223 112.427 703.176 112.18 703.096 111.94C703.029 111.7 702.916 111.487 702.756 111.3C702.609 111.113 702.416 110.96 702.176 110.84C701.949 110.72 701.663 110.66 701.316 110.66C700.983 110.66 700.696 110.72 700.456 110.84C700.216 110.947 700.016 111.093 699.856 111.28C699.696 111.467 699.569 111.687 699.476 111.94C699.396 112.18 699.336 112.427 699.296 112.68H703.236ZM708.416 108.84C708.922 108.693 709.576 108.56 710.376 108.44C711.176 108.307 712.016 108.24 712.896 108.24C713.789 108.24 714.529 108.36 715.116 108.6C715.716 108.827 716.189 109.153 716.536 109.58C716.882 110.007 717.129 110.513 717.276 111.1C717.422 111.687 717.496 112.34 717.496 113.06V119H714.516V113.42C714.516 112.46 714.389 111.78 714.136 111.38C713.882 110.98 713.409 110.78 712.716 110.78C712.502 110.78 712.276 110.793 712.036 110.82C711.796 110.833 711.582 110.853 711.396 110.88V119H708.416V108.84ZM723.173 112.28C723.466 111.96 723.766 111.627 724.073 111.28C724.393 110.933 724.7 110.593 724.993 110.26C725.286 109.913 725.56 109.587 725.813 109.28C726.08 108.973 726.306 108.707 726.493 108.48H730.033C729.326 109.293 728.633 110.073 727.953 110.82C727.286 111.553 726.553 112.313 725.753 113.1C726.153 113.46 726.566 113.893 726.993 114.4C727.42 114.893 727.833 115.407 728.233 115.94C728.633 116.473 729 117.007 729.333 117.54C729.666 118.073 729.946 118.56 730.173 119H726.753C726.54 118.653 726.293 118.273 726.013 117.86C725.746 117.433 725.46 117.013 725.153 116.6C724.846 116.173 724.52 115.767 724.173 115.38C723.84 114.993 723.506 114.667 723.173 114.4V119H720.193V103.96L723.173 103.48V112.28ZM730.552 113.82C730.552 112.887 730.692 112.073 730.972 111.38C731.266 110.673 731.646 110.087 732.112 109.62C732.579 109.153 733.112 108.8 733.712 108.56C734.326 108.32 734.952 108.2 735.592 108.2C737.086 108.2 738.266 108.66 739.132 109.58C739.999 110.487 740.432 111.827 740.432 113.6C740.432 113.773 740.426 113.967 740.412 114.18C740.399 114.38 740.386 114.56 740.372 114.72H733.612C733.679 115.333 733.966 115.82 734.472 116.18C734.979 116.54 735.659 116.72 736.512 116.72C737.059 116.72 737.592 116.673 738.112 116.58C738.646 116.473 739.079 116.347 739.412 116.2L739.812 118.62C739.652 118.7 739.439 118.78 739.172 118.86C738.906 118.94 738.606 119.007 738.272 119.06C737.952 119.127 737.606 119.18 737.232 119.22C736.859 119.26 736.486 119.28 736.112 119.28C735.166 119.28 734.339 119.14 733.632 118.86C732.939 118.58 732.359 118.2 731.892 117.72C731.439 117.227 731.099 116.647 730.872 115.98C730.659 115.313 730.552 114.593 730.552 113.82ZM737.552 112.68C737.539 112.427 737.492 112.18 737.412 111.94C737.346 111.7 737.232 111.487 737.072 111.3C736.926 111.113 736.732 110.96 736.492 110.84C736.266 110.72 735.979 110.66 735.632 110.66C735.299 110.66 735.012 110.72 734.772 110.84C734.532 110.947 734.332 111.093 734.172 111.28C734.012 111.467 733.886 111.687 733.792 111.94C733.712 112.18 733.652 112.427 733.612 112.68H737.552ZM742.732 108.84C743.239 108.693 743.892 108.56 744.692 108.44C745.492 108.307 746.332 108.24 747.212 108.24C748.105 108.24 748.845 108.36 749.432 108.6C750.032 108.827 750.505 109.153 750.852 109.58C751.199 110.007 751.445 110.513 751.592 111.1C751.739 111.687 751.812 112.34 751.812 113.06V119H748.832V113.42C748.832 112.46 748.705 111.78 748.452 111.38C748.199 110.98 747.725 110.78 747.032 110.78C746.819 110.78 746.592 110.793 746.352 110.82C746.112 110.833 745.899 110.853 745.712 110.88V119H742.732V108.84ZM765.094 113.42C765.094 112.46 764.967 111.78 764.714 111.38C764.474 110.98 764.054 110.78 763.454 110.78C763.267 110.78 763.074 110.793 762.874 110.82C762.674 110.833 762.481 110.853 762.294 110.88V119H759.314V108.84C759.567 108.773 759.861 108.707 760.194 108.64C760.541 108.56 760.901 108.493 761.274 108.44C761.661 108.373 762.054 108.327 762.454 108.3C762.854 108.26 763.247 108.24 763.634 108.24C764.394 108.24 765.007 108.34 765.474 108.54C765.954 108.727 766.347 108.953 766.654 109.22C767.081 108.913 767.567 108.673 768.114 108.5C768.674 108.327 769.187 108.24 769.654 108.24C770.494 108.24 771.181 108.36 771.714 108.6C772.261 108.827 772.694 109.153 773.014 109.58C773.334 110.007 773.554 110.513 773.674 111.1C773.794 111.687 773.854 112.34 773.854 113.06V119H770.874V113.42C770.874 112.46 770.747 111.78 770.494 111.38C770.254 110.98 769.834 110.78 769.234 110.78C769.074 110.78 768.847 110.82 768.554 110.9C768.274 110.98 768.041 111.08 767.854 111.2C767.947 111.507 768.007 111.833 768.034 112.18C768.061 112.513 768.074 112.873 768.074 113.26V119H765.094V113.42ZM776.06 113.82C776.06 112.887 776.2 112.073 776.48 111.38C776.773 110.673 777.153 110.087 777.62 109.62C778.087 109.153 778.62 108.8 779.22 108.56C779.833 108.32 780.46 108.2 781.1 108.2C782.593 108.2 783.773 108.66 784.64 109.58C785.507 110.487 785.94 111.827 785.94 113.6C785.94 113.773 785.933 113.967 785.92 114.18C785.907 114.38 785.893 114.56 785.88 114.72H779.12C779.187 115.333 779.473 115.82 779.98 116.18C780.487 116.54 781.167 116.72 782.02 116.72C782.567 116.72 783.1 116.673 783.62 116.58C784.153 116.473 784.587 116.347 784.92 116.2L785.32 118.62C785.16 118.7 784.947 118.78 784.68 118.86C784.413 118.94 784.113 119.007 783.78 119.06C783.46 119.127 783.113 119.18 782.74 119.22C782.367 119.26 781.993 119.28 781.62 119.28C780.673 119.28 779.847 119.14 779.14 118.86C778.447 118.58 777.867 118.2 777.4 117.72C776.947 117.227 776.607 116.647 776.38 115.98C776.167 115.313 776.06 114.593 776.06 113.82ZM783.06 112.68C783.047 112.427 783 112.18 782.92 111.94C782.853 111.7 782.74 111.487 782.58 111.3C782.433 111.113 782.24 110.96 782 110.84C781.773 110.72 781.487 110.66 781.14 110.66C780.807 110.66 780.52 110.72 780.28 110.84C780.04 110.947 779.84 111.093 779.68 111.28C779.52 111.467 779.393 111.687 779.3 111.94C779.22 112.18 779.16 112.427 779.12 112.68H783.06ZM787.74 113.82C787.74 112.887 787.88 112.073 788.16 111.38C788.453 110.673 788.833 110.087 789.3 109.62C789.767 109.153 790.3 108.8 790.9 108.56C791.513 108.32 792.14 108.2 792.78 108.2C794.273 108.2 795.453 108.66 796.32 109.58C797.187 110.487 797.62 111.827 797.62 113.6C797.62 113.773 797.613 113.967 797.6 114.18C797.587 114.38 797.573 114.56 797.56 114.72H790.8C790.867 115.333 791.153 115.82 791.66 116.18C792.167 116.54 792.847 116.72 793.7 116.72C794.247 116.72 794.78 116.673 795.3 116.58C795.833 116.473 796.267 116.347 796.6 116.2L797 118.62C796.84 118.7 796.627 118.78 796.36 118.86C796.093 118.94 795.793 119.007 795.46 119.06C795.14 119.127 794.793 119.18 794.42 119.22C794.047 119.26 793.673 119.28 793.3 119.28C792.353 119.28 791.527 119.14 790.82 118.86C790.127 118.58 789.547 118.2 789.08 117.72C788.627 117.227 788.287 116.647 788.06 115.98C787.847 115.313 787.74 114.593 787.74 113.82ZM794.74 112.68C794.727 112.427 794.68 112.18 794.6 111.94C794.533 111.7 794.42 111.487 794.26 111.3C794.113 111.113 793.92 110.96 793.68 110.84C793.453 110.72 793.167 110.66 792.82 110.66C792.487 110.66 792.2 110.72 791.96 110.84C791.72 110.947 791.52 111.093 791.36 111.28C791.2 111.467 791.073 111.687 790.98 111.94C790.9 112.18 790.84 112.427 790.8 112.68H794.74Z" fill="#08274C"/>
<path d="M1253.19 106.62C1253.35 107.167 1253.53 107.787 1253.71 108.48C1253.91 109.16 1254.12 109.867 1254.33 110.6C1254.56 111.333 1254.79 112.067 1255.01 112.8C1255.24 113.533 1255.46 114.213 1255.67 114.84C1255.85 114.16 1256.02 113.42 1256.19 112.62C1256.38 111.82 1256.55 110.993 1256.71 110.14C1256.87 109.287 1257.03 108.44 1257.17 107.6C1257.33 106.747 1257.48 105.927 1257.61 105.14H1260.85C1260.39 107.46 1259.85 109.813 1259.23 112.2C1258.63 114.587 1257.98 116.853 1257.27 119H1254.41C1253.95 117.72 1253.49 116.38 1253.05 114.98C1252.61 113.567 1252.18 112.153 1251.75 110.74C1251.33 112.153 1250.9 113.567 1250.47 114.98C1250.05 116.38 1249.6 117.72 1249.13 119H1246.27C1245.57 116.853 1244.91 114.587 1244.29 112.2C1243.69 109.813 1243.16 107.46 1242.69 105.14H1246.07C1246.21 105.927 1246.35 106.747 1246.51 107.6C1246.67 108.44 1246.84 109.287 1247.01 110.14C1247.19 110.993 1247.36 111.82 1247.53 112.62C1247.72 113.42 1247.91 114.16 1248.09 114.84C1248.33 114.187 1248.57 113.493 1248.79 112.76C1249.02 112.027 1249.24 111.293 1249.45 110.56C1249.67 109.827 1249.86 109.12 1250.03 108.44C1250.22 107.76 1250.39 107.153 1250.53 106.62H1253.19ZM1261.49 113.82C1261.49 112.887 1261.63 112.073 1261.91 111.38C1262.21 110.673 1262.59 110.087 1263.05 109.62C1263.52 109.153 1264.05 108.8 1264.65 108.56C1265.27 108.32 1265.89 108.2 1266.53 108.2C1268.03 108.2 1269.21 108.66 1270.07 109.58C1270.94 110.487 1271.37 111.827 1271.37 113.6C1271.37 113.773 1271.37 113.967 1271.35 114.18C1271.34 114.38 1271.33 114.56 1271.31 114.72H1264.55C1264.62 115.333 1264.91 115.82 1265.41 116.18C1265.92 116.54 1266.6 116.72 1267.45 116.72C1268 116.72 1268.53 116.673 1269.05 116.58C1269.59 116.473 1270.02 116.347 1270.35 116.2L1270.75 118.62C1270.59 118.7 1270.38 118.78 1270.11 118.86C1269.85 118.94 1269.55 119.007 1269.21 119.06C1268.89 119.127 1268.55 119.18 1268.17 119.22C1267.8 119.26 1267.43 119.28 1267.05 119.28C1266.11 119.28 1265.28 119.14 1264.57 118.86C1263.88 118.58 1263.3 118.2 1262.83 117.72C1262.38 117.227 1262.04 116.647 1261.81 115.98C1261.6 115.313 1261.49 114.593 1261.49 113.82ZM1268.49 112.68C1268.48 112.427 1268.43 112.18 1268.35 111.94C1268.29 111.7 1268.17 111.487 1268.01 111.3C1267.87 111.113 1267.67 110.96 1267.43 110.84C1267.21 110.72 1266.92 110.66 1266.57 110.66C1266.24 110.66 1265.95 110.72 1265.71 110.84C1265.47 110.947 1265.27 111.093 1265.11 111.28C1264.95 111.467 1264.83 111.687 1264.73 111.94C1264.65 112.18 1264.59 112.427 1264.55 112.68H1268.49ZM1285.22 113.66C1285.22 111.74 1284.51 110.78 1283.1 110.78C1282.79 110.78 1282.48 110.82 1282.18 110.9C1281.88 110.98 1281.64 111.08 1281.46 111.2V116.62C1281.6 116.647 1281.79 116.673 1282.02 116.7C1282.24 116.713 1282.49 116.72 1282.76 116.72C1283.57 116.72 1284.18 116.44 1284.6 115.88C1285.01 115.32 1285.22 114.58 1285.22 113.66ZM1288.26 113.74C1288.26 114.58 1288.13 115.34 1287.88 116.02C1287.64 116.7 1287.28 117.28 1286.82 117.76C1286.35 118.24 1285.78 118.613 1285.1 118.88C1284.42 119.133 1283.64 119.26 1282.78 119.26C1282.42 119.26 1282.04 119.24 1281.64 119.2C1281.25 119.173 1280.86 119.133 1280.48 119.08C1280.1 119.027 1279.74 118.967 1279.4 118.9C1279.05 118.82 1278.74 118.74 1278.48 118.66V103.96L1281.46 103.48V108.72C1281.79 108.573 1282.14 108.46 1282.5 108.38C1282.86 108.3 1283.24 108.26 1283.66 108.26C1284.4 108.26 1285.06 108.393 1285.64 108.66C1286.21 108.913 1286.69 109.28 1287.08 109.76C1287.46 110.24 1287.76 110.82 1287.96 111.5C1288.16 112.167 1288.26 112.913 1288.26 113.74ZM1294.75 119.2C1293.88 119.187 1293.18 119.093 1292.63 118.92C1292.1 118.747 1291.67 118.507 1291.35 118.2C1291.04 117.88 1290.83 117.5 1290.71 117.06C1290.6 116.607 1290.55 116.1 1290.55 115.54V103.96L1293.53 103.48V114.94C1293.53 115.207 1293.55 115.447 1293.59 115.66C1293.63 115.873 1293.7 116.053 1293.81 116.2C1293.93 116.347 1294.1 116.467 1294.31 116.56C1294.52 116.653 1294.81 116.713 1295.17 116.74L1294.75 119.2ZM1299.86 119H1296.88V108.48H1299.86V119ZM1300.14 105.44C1300.14 105.987 1299.96 106.42 1299.6 106.74C1299.25 107.047 1298.84 107.2 1298.36 107.2C1297.88 107.2 1297.46 107.047 1297.1 106.74C1296.75 106.42 1296.58 105.987 1296.58 105.44C1296.58 104.893 1296.75 104.467 1297.1 104.16C1297.46 103.84 1297.88 103.68 1298.36 103.68C1298.84 103.68 1299.25 103.84 1299.6 104.16C1299.96 104.467 1300.14 104.893 1300.14 105.44ZM1301.68 122.7C1301.49 122.7 1301.22 122.68 1300.86 122.64C1300.48 122.6 1300.14 122.527 1299.82 122.42L1300.22 120C1300.42 120.067 1300.6 120.113 1300.78 120.14C1300.94 120.167 1301.14 120.18 1301.4 120.18C1301.86 120.18 1302.19 120.04 1302.38 119.76C1302.56 119.48 1302.66 119.073 1302.66 118.54V108.48H1305.64V118.62C1305.64 120.007 1305.3 121.033 1304.62 121.7C1303.94 122.367 1302.96 122.7 1301.68 122.7ZM1305.92 105.44C1305.92 105.987 1305.74 106.42 1305.38 106.74C1305.03 107.047 1304.62 107.2 1304.14 107.2C1303.66 107.2 1303.24 107.047 1302.88 106.74C1302.53 106.42 1302.36 105.987 1302.36 105.44C1302.36 104.893 1302.53 104.467 1302.88 104.16C1303.24 103.84 1303.66 103.68 1304.14 103.68C1304.62 103.68 1305.03 103.84 1305.38 104.16C1305.74 104.467 1305.92 104.893 1305.92 105.44ZM1310.99 119C1310.31 117.667 1309.61 116.107 1308.91 114.32C1308.21 112.533 1307.55 110.587 1306.93 108.48H1310.09C1310.22 109 1310.37 109.567 1310.55 110.18C1310.73 110.78 1310.92 111.393 1311.11 112.02C1311.31 112.633 1311.5 113.233 1311.69 113.82C1311.89 114.407 1312.08 114.94 1312.27 115.42C1312.44 114.94 1312.63 114.407 1312.83 113.82C1313.03 113.233 1313.22 112.633 1313.41 112.02C1313.61 111.393 1313.79 110.78 1313.97 110.18C1314.15 109.567 1314.31 109 1314.45 108.48H1317.53C1316.9 110.587 1316.23 112.533 1315.53 114.32C1314.83 116.107 1314.15 117.667 1313.47 119H1310.99ZM1318.35 113.82C1318.35 112.887 1318.49 112.073 1318.77 111.38C1319.06 110.673 1319.44 110.087 1319.91 109.62C1320.38 109.153 1320.91 108.8 1321.51 108.56C1322.12 108.32 1322.75 108.2 1323.39 108.2C1324.88 108.2 1326.06 108.66 1326.93 109.58C1327.8 110.487 1328.23 111.827 1328.23 113.6C1328.23 113.773 1328.22 113.967 1328.21 114.18C1328.2 114.38 1328.18 114.56 1328.17 114.72H1321.41C1321.48 115.333 1321.76 115.82 1322.27 116.18C1322.78 116.54 1323.46 116.72 1324.31 116.72C1324.86 116.72 1325.39 116.673 1325.91 116.58C1326.44 116.473 1326.88 116.347 1327.21 116.2L1327.61 118.62C1327.45 118.7 1327.24 118.78 1326.97 118.86C1326.7 118.94 1326.4 119.007 1326.07 119.06C1325.75 119.127 1325.4 119.18 1325.03 119.22C1324.66 119.26 1324.28 119.28 1323.91 119.28C1322.96 119.28 1322.14 119.14 1321.43 118.86C1320.74 118.58 1320.16 118.2 1319.69 117.72C1319.24 117.227 1318.9 116.647 1318.67 115.98C1318.46 115.313 1318.35 114.593 1318.35 113.82ZM1325.35 112.68C1325.34 112.427 1325.29 112.18 1325.21 111.94C1325.14 111.7 1325.03 111.487 1324.87 111.3C1324.72 111.113 1324.53 110.96 1324.29 110.84C1324.06 110.72 1323.78 110.66 1323.43 110.66C1323.1 110.66 1322.81 110.72 1322.57 110.84C1322.33 110.947 1322.13 111.093 1321.97 111.28C1321.81 111.467 1321.68 111.687 1321.59 111.94C1321.51 112.18 1321.45 112.427 1321.41 112.68H1325.35ZM1330.53 108.84C1331.04 108.693 1331.69 108.56 1332.49 108.44C1333.29 108.307 1334.13 108.24 1335.01 108.24C1335.9 108.24 1336.64 108.36 1337.23 108.6C1337.83 108.827 1338.3 109.153 1338.65 109.58C1339 110.007 1339.24 110.513 1339.39 111.1C1339.54 111.687 1339.61 112.34 1339.61 113.06V119H1336.63V113.42C1336.63 112.46 1336.5 111.78 1336.25 111.38C1336 110.98 1335.52 110.78 1334.83 110.78C1334.62 110.78 1334.39 110.793 1334.15 110.82C1333.91 110.833 1333.7 110.853 1333.51 110.88V119H1330.53V108.84ZM1350.09 119H1347.11V108.48H1350.09V119ZM1350.37 105.44C1350.37 105.987 1350.19 106.42 1349.83 106.74C1349.48 107.047 1349.07 107.2 1348.59 107.2C1348.11 107.2 1347.69 107.047 1347.33 106.74C1346.98 106.42 1346.81 105.987 1346.81 105.44C1346.81 104.893 1346.98 104.467 1347.33 104.16C1347.69 103.84 1348.11 103.68 1348.59 103.68C1349.07 103.68 1349.48 103.84 1349.83 104.16C1350.19 104.467 1350.37 104.893 1350.37 105.44ZM1352.89 108.84C1353.4 108.693 1354.05 108.56 1354.85 108.44C1355.65 108.307 1356.49 108.24 1357.37 108.24C1358.27 108.24 1359.01 108.36 1359.59 108.6C1360.19 108.827 1360.67 109.153 1361.01 109.58C1361.36 110.007 1361.61 110.513 1361.75 111.1C1361.9 111.687 1361.97 112.34 1361.97 113.06V119H1358.99V113.42C1358.99 112.46 1358.87 111.78 1358.61 111.38C1358.36 110.98 1357.89 110.78 1357.19 110.78C1356.98 110.78 1356.75 110.793 1356.51 110.82C1356.27 110.833 1356.06 110.853 1355.87 110.88V119H1352.89V108.84ZM1376.21 113.66C1376.21 111.74 1375.51 110.78 1374.09 110.78C1373.79 110.78 1373.48 110.82 1373.17 110.9C1372.88 110.98 1372.64 111.08 1372.45 111.2V116.62C1372.6 116.647 1372.79 116.673 1373.01 116.7C1373.24 116.713 1373.49 116.72 1373.75 116.72C1374.57 116.72 1375.18 116.44 1375.59 115.88C1376.01 115.32 1376.21 114.58 1376.21 113.66ZM1379.25 113.74C1379.25 114.58 1379.13 115.34 1378.87 116.02C1378.63 116.7 1378.28 117.28 1377.81 117.76C1377.35 118.24 1376.77 118.613 1376.09 118.88C1375.41 119.133 1374.64 119.26 1373.77 119.26C1373.41 119.26 1373.03 119.24 1372.63 119.2C1372.25 119.173 1371.86 119.133 1371.47 119.08C1371.1 119.027 1370.74 118.967 1370.39 118.9C1370.05 118.82 1369.74 118.74 1369.47 118.66V103.96L1372.45 103.48V108.72C1372.79 108.573 1373.13 108.46 1373.49 108.38C1373.85 108.3 1374.24 108.26 1374.65 108.26C1375.4 108.26 1376.06 108.393 1376.63 108.66C1377.21 108.913 1377.69 109.28 1378.07 109.76C1378.46 110.24 1378.75 110.82 1378.95 111.5C1379.15 112.167 1379.25 112.913 1379.25 113.74ZM1381.04 113.82C1381.04 112.887 1381.18 112.073 1381.46 111.38C1381.76 110.673 1382.14 110.087 1382.6 109.62C1383.07 109.153 1383.6 108.8 1384.2 108.56C1384.82 108.32 1385.44 108.2 1386.08 108.2C1387.58 108.2 1388.76 108.66 1389.62 109.58C1390.49 110.487 1390.92 111.827 1390.92 113.6C1390.92 113.773 1390.92 113.967 1390.9 114.18C1390.89 114.38 1390.88 114.56 1390.86 114.72H1384.1C1384.17 115.333 1384.46 115.82 1384.96 116.18C1385.47 116.54 1386.15 116.72 1387 116.72C1387.55 116.72 1388.08 116.673 1388.6 116.58C1389.14 116.473 1389.57 116.347 1389.9 116.2L1390.3 118.62C1390.14 118.7 1389.93 118.78 1389.66 118.86C1389.4 118.94 1389.1 119.007 1388.76 119.06C1388.44 119.127 1388.1 119.18 1387.72 119.22C1387.35 119.26 1386.98 119.28 1386.6 119.28C1385.66 119.28 1384.83 119.14 1384.12 118.86C1383.43 118.58 1382.85 118.2 1382.38 117.72C1381.93 117.227 1381.59 116.647 1381.36 115.98C1381.15 115.313 1381.04 114.593 1381.04 113.82ZM1388.04 112.68C1388.03 112.427 1387.98 112.18 1387.9 111.94C1387.84 111.7 1387.72 111.487 1387.56 111.3C1387.42 111.113 1387.22 110.96 1386.98 110.84C1386.76 110.72 1386.47 110.66 1386.12 110.66C1385.79 110.66 1385.5 110.72 1385.26 110.84C1385.02 110.947 1384.82 111.093 1384.66 111.28C1384.5 111.467 1384.38 111.687 1384.28 111.94C1384.2 112.18 1384.14 112.427 1384.1 112.68H1388.04ZM1392.72 113.82C1392.72 112.887 1392.86 112.073 1393.14 111.38C1393.44 110.673 1393.82 110.087 1394.28 109.62C1394.75 109.153 1395.28 108.8 1395.88 108.56C1396.5 108.32 1397.12 108.2 1397.76 108.2C1399.26 108.2 1400.44 108.66 1401.3 109.58C1402.17 110.487 1402.6 111.827 1402.6 113.6C1402.6 113.773 1402.6 113.967 1402.58 114.18C1402.57 114.38 1402.56 114.56 1402.54 114.72H1395.78C1395.85 115.333 1396.14 115.82 1396.64 116.18C1397.15 116.54 1397.83 116.72 1398.68 116.72C1399.23 116.72 1399.76 116.673 1400.28 116.58C1400.82 116.473 1401.25 116.347 1401.58 116.2L1401.98 118.62C1401.82 118.7 1401.61 118.78 1401.34 118.86C1401.08 118.94 1400.78 119.007 1400.44 119.06C1400.12 119.127 1399.78 119.18 1399.4 119.22C1399.03 119.26 1398.66 119.28 1398.28 119.28C1397.34 119.28 1396.51 119.14 1395.8 118.86C1395.11 118.58 1394.53 118.2 1394.06 117.72C1393.61 117.227 1393.27 116.647 1393.04 115.98C1392.83 115.313 1392.72 114.593 1392.72 113.82ZM1399.72 112.68C1399.71 112.427 1399.66 112.18 1399.58 111.94C1399.52 111.7 1399.4 111.487 1399.24 111.3C1399.1 111.113 1398.9 110.96 1398.66 110.84C1398.44 110.72 1398.15 110.66 1397.8 110.66C1397.47 110.66 1397.18 110.72 1396.94 110.84C1396.7 110.947 1396.5 111.093 1396.34 111.28C1396.18 111.467 1396.06 111.687 1395.96 111.94C1395.88 112.18 1395.82 112.427 1395.78 112.68H1399.72ZM1409.1 119.2C1408.24 119.187 1407.53 119.093 1406.98 118.92C1406.45 118.747 1406.02 118.507 1405.7 118.2C1405.4 117.88 1405.18 117.5 1405.06 117.06C1404.96 116.607 1404.9 116.1 1404.9 115.54V103.96L1407.88 103.48V114.94C1407.88 115.207 1407.9 115.447 1407.94 115.66C1407.98 115.873 1408.06 116.053 1408.16 116.2C1408.28 116.347 1408.45 116.467 1408.66 116.56C1408.88 116.653 1409.16 116.713 1409.52 116.74L1409.1 119.2ZM1413.77 113.66C1413.77 114.58 1413.98 115.32 1414.39 115.88C1414.81 116.44 1415.42 116.72 1416.23 116.72C1416.5 116.72 1416.75 116.713 1416.97 116.7C1417.2 116.673 1417.39 116.647 1417.53 116.62V111.2C1417.35 111.08 1417.1 110.98 1416.79 110.9C1416.5 110.82 1416.2 110.78 1415.89 110.78C1414.48 110.78 1413.77 111.74 1413.77 113.66ZM1420.51 118.66C1420.25 118.74 1419.94 118.82 1419.59 118.9C1419.25 118.967 1418.88 119.027 1418.49 119.08C1418.12 119.133 1417.73 119.173 1417.33 119.2C1416.95 119.24 1416.57 119.26 1416.21 119.26C1415.35 119.26 1414.57 119.133 1413.89 118.88C1413.21 118.627 1412.64 118.267 1412.17 117.8C1411.71 117.32 1411.35 116.747 1411.09 116.08C1410.85 115.4 1410.73 114.64 1410.73 113.8C1410.73 112.947 1410.84 112.18 1411.05 111.5C1411.27 110.807 1411.57 110.22 1411.97 109.74C1412.37 109.26 1412.86 108.893 1413.43 108.64C1414.02 108.387 1414.69 108.26 1415.43 108.26C1415.85 108.26 1416.21 108.3 1416.53 108.38C1416.87 108.46 1417.2 108.573 1417.53 108.72V103.96L1420.51 103.48V118.66Z" fill="#08274C"/>
<path d="M367 106.62C367.16 107.167 367.333 107.787 367.52 108.48C367.72 109.16 367.926 109.867 368.14 110.6C368.366 111.333 368.593 112.067 368.82 112.8C369.046 113.533 369.266 114.213 369.48 114.84C369.653 114.16 369.826 113.42 370 112.62C370.186 111.82 370.36 110.993 370.52 110.14C370.68 109.287 370.833 108.44 370.98 107.6C371.14 106.747 371.286 105.927 371.42 105.14H374.66C374.193 107.46 373.653 109.813 373.04 112.2C372.44 114.587 371.786 116.853 371.08 119H368.22C367.753 117.72 367.3 116.38 366.86 114.98C366.42 113.567 365.986 112.153 365.56 110.74C365.133 112.153 364.706 113.567 364.28 114.98C363.853 116.38 363.406 117.72 362.94 119H360.08C359.373 116.853 358.713 114.587 358.1 112.2C357.5 109.813 356.966 107.46 356.5 105.14H359.88C360.013 105.927 360.16 106.747 360.32 107.6C360.48 108.44 360.646 109.287 360.82 110.14C360.993 110.993 361.166 111.82 361.34 112.62C361.526 113.42 361.713 114.16 361.9 114.84C362.14 114.187 362.373 113.493 362.6 112.76C362.826 112.027 363.046 111.293 363.26 110.56C363.473 109.827 363.666 109.12 363.84 108.44C364.026 107.76 364.193 107.153 364.34 106.62H367ZM379.444 119H376.464V108.48H379.444V119ZM379.724 105.44C379.724 105.987 379.544 106.42 379.184 106.74C378.838 107.047 378.424 107.2 377.944 107.2C377.464 107.2 377.044 107.047 376.684 106.74C376.338 106.42 376.164 105.987 376.164 105.44C376.164 104.893 376.338 104.467 376.684 104.16C377.044 103.84 377.464 103.68 377.944 103.68C378.424 103.68 378.838 103.84 379.184 104.16C379.544 104.467 379.724 104.893 379.724 105.44ZM381.266 122.7C381.079 122.7 380.806 122.68 380.446 122.64C380.072 122.6 379.726 122.527 379.406 122.42L379.806 120C380.006 120.067 380.192 120.113 380.366 120.14C380.526 120.167 380.732 120.18 380.986 120.18C381.452 120.18 381.779 120.04 381.966 119.76C382.152 119.48 382.246 119.073 382.246 118.54V108.48H385.226V118.62C385.226 120.007 384.886 121.033 384.206 121.7C383.526 122.367 382.546 122.7 381.266 122.7ZM385.506 105.44C385.506 105.987 385.326 106.42 384.966 106.74C384.619 107.047 384.206 107.2 383.726 107.2C383.246 107.2 382.826 107.047 382.466 106.74C382.119 106.42 381.946 105.987 381.946 105.44C381.946 104.893 382.119 104.467 382.466 104.16C382.826 103.84 383.246 103.68 383.726 103.68C384.206 103.68 384.619 103.84 384.966 104.16C385.326 104.467 385.506 104.893 385.506 105.44ZM397.032 119.2C396.165 119.187 395.458 119.093 394.912 118.92C394.378 118.747 393.952 118.507 393.632 118.2C393.325 117.88 393.112 117.5 392.992 117.06C392.885 116.607 392.832 116.1 392.832 115.54V103.96L395.812 103.48V114.94C395.812 115.207 395.832 115.447 395.872 115.66C395.912 115.873 395.985 116.053 396.092 116.2C396.212 116.347 396.378 116.467 396.592 116.56C396.805 116.653 397.092 116.713 397.452 116.74L397.032 119.2ZM408.14 118.64C407.633 118.787 406.98 118.92 406.18 119.04C405.38 119.173 404.54 119.24 403.66 119.24C402.766 119.24 402.02 119.12 401.42 118.88C400.833 118.64 400.366 118.307 400.02 117.88C399.673 117.44 399.426 116.92 399.28 116.32C399.133 115.72 399.06 115.06 399.06 114.34V108.48H402.04V113.98C402.04 114.94 402.166 115.633 402.42 116.06C402.673 116.487 403.146 116.7 403.84 116.7C404.053 116.7 404.28 116.693 404.52 116.68C404.76 116.653 404.973 116.627 405.16 116.6V108.48H408.14V118.64ZM413.917 119H410.937V108.48H413.917V119ZM414.197 105.44C414.197 105.987 414.017 106.42 413.657 106.74C413.31 107.047 412.897 107.2 412.417 107.2C411.937 107.2 411.517 107.047 411.157 106.74C410.81 106.42 410.637 105.987 410.637 105.44C410.637 104.893 410.81 104.467 411.157 104.16C411.517 103.84 411.937 103.68 412.417 103.68C412.897 103.68 413.31 103.84 413.657 104.16C414.017 104.467 414.197 104.893 414.197 105.44ZM419.738 116.86C420.285 116.86 420.672 116.807 420.898 116.7C421.125 116.593 421.238 116.387 421.238 116.08C421.238 115.84 421.092 115.633 420.798 115.46C420.505 115.273 420.058 115.067 419.458 114.84C418.992 114.667 418.565 114.487 418.178 114.3C417.805 114.113 417.485 113.893 417.218 113.64C416.952 113.373 416.745 113.06 416.598 112.7C416.452 112.34 416.378 111.907 416.378 111.4C416.378 110.413 416.745 109.633 417.478 109.06C418.212 108.487 419.218 108.2 420.498 108.2C421.138 108.2 421.752 108.26 422.338 108.38C422.925 108.487 423.392 108.607 423.738 108.74L423.218 111.06C422.872 110.94 422.492 110.833 422.078 110.74C421.678 110.647 421.225 110.6 420.718 110.6C419.785 110.6 419.318 110.86 419.318 111.38C419.318 111.5 419.338 111.607 419.378 111.7C419.418 111.793 419.498 111.887 419.618 111.98C419.738 112.06 419.898 112.153 420.098 112.26C420.312 112.353 420.578 112.46 420.898 112.58C421.552 112.82 422.092 113.06 422.518 113.3C422.945 113.527 423.278 113.78 423.518 114.06C423.772 114.327 423.945 114.627 424.038 114.96C424.145 115.293 424.198 115.68 424.198 116.12C424.198 117.16 423.805 117.947 423.018 118.48C422.245 119.013 421.145 119.28 419.718 119.28C418.785 119.28 418.005 119.2 417.378 119.04C416.765 118.88 416.338 118.747 416.098 118.64L416.598 116.22C417.105 116.42 417.625 116.58 418.158 116.7C418.692 116.807 419.218 116.86 419.738 116.86ZM426.325 105.86L429.305 105.38V108.48H432.885V110.96H429.305V114.66C429.305 115.287 429.412 115.787 429.625 116.16C429.852 116.533 430.299 116.72 430.965 116.72C431.285 116.72 431.612 116.693 431.945 116.64C432.292 116.573 432.605 116.487 432.885 116.38L433.305 118.7C432.945 118.847 432.545 118.973 432.105 119.08C431.665 119.187 431.125 119.24 430.485 119.24C429.672 119.24 428.999 119.133 428.465 118.92C427.932 118.693 427.505 118.387 427.185 118C426.865 117.6 426.639 117.12 426.505 116.56C426.385 116 426.325 115.38 426.325 114.7V105.86ZM434.421 113.82C434.421 112.887 434.561 112.073 434.841 111.38C435.135 110.673 435.515 110.087 435.981 109.62C436.448 109.153 436.981 108.8 437.581 108.56C438.195 108.32 438.821 108.2 439.461 108.2C440.955 108.2 442.135 108.66 443.001 109.58C443.868 110.487 444.301 111.827 444.301 113.6C444.301 113.773 444.295 113.967 444.281 114.18C444.268 114.38 444.255 114.56 444.241 114.72H437.481C437.548 115.333 437.835 115.82 438.341 116.18C438.848 116.54 439.528 116.72 440.381 116.72C440.928 116.72 441.461 116.673 441.981 116.58C442.515 116.473 442.948 116.347 443.281 116.2L443.681 118.62C443.521 118.7 443.308 118.78 443.041 118.86C442.775 118.94 442.475 119.007 442.141 119.06C441.821 119.127 441.475 119.18 441.101 119.22C440.728 119.26 440.355 119.28 439.981 119.28C439.035 119.28 438.208 119.14 437.501 118.86C436.808 118.58 436.228 118.2 435.761 117.72C435.308 117.227 434.968 116.647 434.741 115.98C434.528 115.313 434.421 114.593 434.421 113.82ZM441.421 112.68C441.408 112.427 441.361 112.18 441.281 111.94C441.215 111.7 441.101 111.487 440.941 111.3C440.795 111.113 440.601 110.96 440.361 110.84C440.135 110.72 439.848 110.66 439.501 110.66C439.168 110.66 438.881 110.72 438.641 110.84C438.401 110.947 438.201 111.093 438.041 111.28C437.881 111.467 437.755 111.687 437.661 111.94C437.581 112.18 437.521 112.427 437.481 112.68H441.421ZM452.941 111.12C452.675 111.053 452.361 110.987 452.001 110.92C451.641 110.84 451.255 110.8 450.841 110.8C450.655 110.8 450.428 110.82 450.161 110.86C449.908 110.887 449.715 110.92 449.581 110.96V119H446.601V109.04C447.135 108.853 447.761 108.68 448.481 108.52C449.215 108.347 450.028 108.26 450.921 108.26C451.081 108.26 451.275 108.273 451.501 108.3C451.728 108.313 451.955 108.34 452.181 108.38C452.408 108.407 452.635 108.447 452.861 108.5C453.088 108.54 453.281 108.593 453.441 108.66L452.941 111.12ZM454.343 113.82C454.343 112.887 454.483 112.073 454.763 111.38C455.057 110.673 455.437 110.087 455.903 109.62C456.37 109.153 456.903 108.8 457.503 108.56C458.117 108.32 458.743 108.2 459.383 108.2C460.877 108.2 462.057 108.66 462.923 109.58C463.79 110.487 464.223 111.827 464.223 113.6C464.223 113.773 464.217 113.967 464.203 114.18C464.19 114.38 464.177 114.56 464.163 114.72H457.403C457.47 115.333 457.757 115.82 458.263 116.18C458.77 116.54 459.45 116.72 460.303 116.72C460.85 116.72 461.383 116.673 461.903 116.58C462.437 116.473 462.87 116.347 463.203 116.2L463.603 118.62C463.443 118.7 463.23 118.78 462.963 118.86C462.697 118.94 462.397 119.007 462.063 119.06C461.743 119.127 461.397 119.18 461.023 119.22C460.65 119.26 460.277 119.28 459.903 119.28C458.957 119.28 458.13 119.14 457.423 118.86C456.73 118.58 456.15 118.2 455.683 117.72C455.23 117.227 454.89 116.647 454.663 115.98C454.45 115.313 454.343 114.593 454.343 113.82ZM461.343 112.68C461.33 112.427 461.283 112.18 461.203 111.94C461.137 111.7 461.023 111.487 460.863 111.3C460.717 111.113 460.523 110.96 460.283 110.84C460.057 110.72 459.77 110.66 459.423 110.66C459.09 110.66 458.803 110.72 458.563 110.84C458.323 110.947 458.123 111.093 457.963 111.28C457.803 111.467 457.677 111.687 457.583 111.94C457.503 112.18 457.443 112.427 457.403 112.68H461.343ZM466.523 108.84C467.03 108.693 467.683 108.56 468.483 108.44C469.283 108.307 470.123 108.24 471.003 108.24C471.896 108.24 472.636 108.36 473.223 108.6C473.823 108.827 474.296 109.153 474.643 109.58C474.99 110.007 475.236 110.513 475.383 111.1C475.53 111.687 475.603 112.34 475.603 113.06V119H472.623V113.42C472.623 112.46 472.496 111.78 472.243 111.38C471.99 110.98 471.516 110.78 470.823 110.78C470.61 110.78 470.383 110.793 470.143 110.82C469.903 110.833 469.69 110.853 469.503 110.88V119H466.523V108.84Z" fill="#08274C"/>
<path d="M971.355 106.62C971.515 107.167 971.688 107.787 971.875 108.48C972.075 109.16 972.282 109.867 972.495 110.6C972.722 111.333 972.948 112.067 973.175 112.8C973.402 113.533 973.622 114.213 973.835 114.84C974.008 114.16 974.182 113.42 974.355 112.62C974.542 111.82 974.715 110.993 974.875 110.14C975.035 109.287 975.188 108.44 975.335 107.6C975.495 106.747 975.642 105.927 975.775 105.14H979.015C978.548 107.46 978.008 109.813 977.395 112.2C976.795 114.587 976.142 116.853 975.435 119H972.575C972.108 117.72 971.655 116.38 971.215 114.98C970.775 113.567 970.342 112.153 969.915 110.74C969.488 112.153 969.062 113.567 968.635 114.98C968.208 116.38 967.762 117.72 967.295 119H964.435C963.728 116.853 963.068 114.587 962.455 112.2C961.855 109.813 961.322 107.46 960.855 105.14H964.235C964.368 105.927 964.515 106.747 964.675 107.6C964.835 108.44 965.002 109.287 965.175 110.14C965.348 110.993 965.522 111.82 965.695 112.62C965.882 113.42 966.068 114.16 966.255 114.84C966.495 114.187 966.728 113.493 966.955 112.76C967.182 112.027 967.402 111.293 967.615 110.56C967.828 109.827 968.022 109.12 968.195 108.44C968.382 107.76 968.548 107.153 968.695 106.62H971.355ZM979.656 113.82C979.656 112.887 979.796 112.073 980.076 111.38C980.369 110.673 980.749 110.087 981.216 109.62C981.683 109.153 982.216 108.8 982.816 108.56C983.429 108.32 984.056 108.2 984.696 108.2C986.189 108.2 987.369 108.66 988.236 109.58C989.103 110.487 989.536 111.827 989.536 113.6C989.536 113.773 989.529 113.967 989.516 114.18C989.503 114.38 989.489 114.56 989.476 114.72H982.716C982.783 115.333 983.069 115.82 983.576 116.18C984.083 116.54 984.763 116.72 985.616 116.72C986.163 116.72 986.696 116.673 987.216 116.58C987.749 116.473 988.183 116.347 988.516 116.2L988.916 118.62C988.756 118.7 988.543 118.78 988.276 118.86C988.009 118.94 987.709 119.007 987.376 119.06C987.056 119.127 986.709 119.18 986.336 119.22C985.963 119.26 985.589 119.28 985.216 119.28C984.269 119.28 983.443 119.14 982.736 118.86C982.043 118.58 981.463 118.2 980.996 117.72C980.543 117.227 980.203 116.647 979.976 115.98C979.763 115.313 979.656 114.593 979.656 113.82ZM986.656 112.68C986.643 112.427 986.596 112.18 986.516 111.94C986.449 111.7 986.336 111.487 986.176 111.3C986.029 111.113 985.836 110.96 985.596 110.84C985.369 110.72 985.083 110.66 984.736 110.66C984.403 110.66 984.116 110.72 983.876 110.84C983.636 110.947 983.436 111.093 983.276 111.28C983.116 111.467 982.989 111.687 982.896 111.94C982.816 112.18 982.756 112.427 982.716 112.68H986.656ZM999.5 119C998.82 117.667 998.127 116.107 997.42 114.32C996.727 112.533 996.067 110.587 995.44 108.48H998.6C998.734 109 998.887 109.567 999.06 110.18C999.247 110.78 999.434 111.393 999.62 112.02C999.82 112.633 1000.01 113.233 1000.2 113.82C1000.4 114.407 1000.59 114.94 1000.78 115.42C1000.95 114.94 1001.14 114.407 1001.34 113.82C1001.54 113.233 1001.73 112.633 1001.92 112.02C1002.12 111.393 1002.31 110.78 1002.48 110.18C1002.67 109.567 1002.83 109 1002.96 108.48H1006.04C1005.41 110.587 1004.75 112.533 1004.04 114.32C1003.35 116.107 1002.66 117.667 1001.98 119H999.5ZM1017.2 113.72C1017.2 114.547 1017.08 115.307 1016.84 116C1016.6 116.68 1016.26 117.267 1015.8 117.76C1015.35 118.24 1014.8 118.613 1014.16 118.88C1013.54 119.147 1012.83 119.28 1012.04 119.28C1011.27 119.28 1010.56 119.147 1009.92 118.88C1009.3 118.613 1008.76 118.24 1008.3 117.76C1007.85 117.267 1007.5 116.68 1007.24 116C1006.99 115.307 1006.86 114.547 1006.86 113.72C1006.86 112.893 1006.99 112.14 1007.24 111.46C1007.51 110.78 1007.87 110.2 1008.32 109.72C1008.79 109.24 1009.34 108.867 1009.96 108.6C1010.6 108.333 1011.3 108.2 1012.04 108.2C1012.8 108.2 1013.5 108.333 1014.12 108.6C1014.76 108.867 1015.31 109.24 1015.76 109.72C1016.22 110.2 1016.57 110.78 1016.82 111.46C1017.08 112.14 1017.2 112.893 1017.2 113.72ZM1014.16 113.72C1014.16 112.8 1013.98 112.08 1013.6 111.56C1013.24 111.027 1012.72 110.76 1012.04 110.76C1011.36 110.76 1010.84 111.027 1010.46 111.56C1010.09 112.08 1009.9 112.8 1009.9 113.72C1009.9 114.64 1010.09 115.373 1010.46 115.92C1010.84 116.453 1011.36 116.72 1012.04 116.72C1012.72 116.72 1013.24 116.453 1013.6 115.92C1013.98 115.373 1014.16 114.64 1014.16 113.72ZM1019.01 113.82C1019.01 112.887 1019.15 112.073 1019.43 111.38C1019.72 110.673 1020.1 110.087 1020.57 109.62C1021.04 109.153 1021.57 108.8 1022.17 108.56C1022.78 108.32 1023.41 108.2 1024.05 108.2C1025.54 108.2 1026.72 108.66 1027.59 109.58C1028.46 110.487 1028.89 111.827 1028.89 113.6C1028.89 113.773 1028.88 113.967 1028.87 114.18C1028.86 114.38 1028.84 114.56 1028.83 114.72H1022.07C1022.14 115.333 1022.42 115.82 1022.93 116.18C1023.44 116.54 1024.12 116.72 1024.97 116.72C1025.52 116.72 1026.05 116.673 1026.57 116.58C1027.1 116.473 1027.54 116.347 1027.87 116.2L1028.27 118.62C1028.11 118.7 1027.9 118.78 1027.63 118.86C1027.36 118.94 1027.06 119.007 1026.73 119.06C1026.41 119.127 1026.06 119.18 1025.69 119.22C1025.32 119.26 1024.94 119.28 1024.57 119.28C1023.62 119.28 1022.8 119.14 1022.09 118.86C1021.4 118.58 1020.82 118.2 1020.35 117.72C1019.9 117.227 1019.56 116.647 1019.33 115.98C1019.12 115.313 1019.01 114.593 1019.01 113.82ZM1026.01 112.68C1026 112.427 1025.95 112.18 1025.87 111.94C1025.8 111.7 1025.69 111.487 1025.53 111.3C1025.38 111.113 1025.19 110.96 1024.95 110.84C1024.72 110.72 1024.44 110.66 1024.09 110.66C1023.76 110.66 1023.47 110.72 1023.23 110.84C1022.99 110.947 1022.79 111.093 1022.63 111.28C1022.47 111.467 1022.34 111.687 1022.25 111.94C1022.17 112.18 1022.11 112.427 1022.07 112.68H1026.01ZM1037.53 111.12C1037.26 111.053 1036.95 110.987 1036.59 110.92C1036.23 110.84 1035.84 110.8 1035.43 110.8C1035.24 110.8 1035.02 110.82 1034.75 110.86C1034.5 110.887 1034.3 110.92 1034.17 110.96V119H1031.19V109.04C1031.72 108.853 1032.35 108.68 1033.07 108.52C1033.8 108.347 1034.62 108.26 1035.51 108.26C1035.67 108.26 1035.86 108.273 1036.09 108.3C1036.32 108.313 1036.54 108.34 1036.77 108.38C1037 108.407 1037.22 108.447 1037.45 108.5C1037.68 108.54 1037.87 108.593 1038.03 108.66L1037.53 111.12ZM1038.93 113.82C1038.93 112.887 1039.07 112.073 1039.35 111.38C1039.65 110.673 1040.03 110.087 1040.49 109.62C1040.96 109.153 1041.49 108.8 1042.09 108.56C1042.71 108.32 1043.33 108.2 1043.97 108.2C1045.47 108.2 1046.65 108.66 1047.51 109.58C1048.38 110.487 1048.81 111.827 1048.81 113.6C1048.81 113.773 1048.81 113.967 1048.79 114.18C1048.78 114.38 1048.77 114.56 1048.75 114.72H1041.99C1042.06 115.333 1042.35 115.82 1042.85 116.18C1043.36 116.54 1044.04 116.72 1044.89 116.72C1045.44 116.72 1045.97 116.673 1046.49 116.58C1047.03 116.473 1047.46 116.347 1047.79 116.2L1048.19 118.62C1048.03 118.7 1047.82 118.78 1047.55 118.86C1047.29 118.94 1046.99 119.007 1046.65 119.06C1046.33 119.127 1045.99 119.18 1045.61 119.22C1045.24 119.26 1044.87 119.28 1044.49 119.28C1043.55 119.28 1042.72 119.14 1042.01 118.86C1041.32 118.58 1040.74 118.2 1040.27 117.72C1039.82 117.227 1039.48 116.647 1039.25 115.98C1039.04 115.313 1038.93 114.593 1038.93 113.82ZM1045.93 112.68C1045.92 112.427 1045.87 112.18 1045.79 111.94C1045.73 111.7 1045.61 111.487 1045.45 111.3C1045.31 111.113 1045.11 110.96 1044.87 110.84C1044.65 110.72 1044.36 110.66 1044.01 110.66C1043.68 110.66 1043.39 110.72 1043.15 110.84C1042.91 110.947 1042.71 111.093 1042.55 111.28C1042.39 111.467 1042.27 111.687 1042.17 111.94C1042.09 112.18 1042.03 112.427 1041.99 112.68H1045.93ZM1051.11 108.84C1051.62 108.693 1052.27 108.56 1053.07 108.44C1053.87 108.307 1054.71 108.24 1055.59 108.24C1056.49 108.24 1057.23 108.36 1057.81 108.6C1058.41 108.827 1058.89 109.153 1059.23 109.58C1059.58 110.007 1059.83 110.513 1059.97 111.1C1060.12 111.687 1060.19 112.34 1060.19 113.06V119H1057.21V113.42C1057.21 112.46 1057.09 111.78 1056.83 111.38C1056.58 110.98 1056.11 110.78 1055.41 110.78C1055.2 110.78 1054.97 110.793 1054.73 110.82C1054.49 110.833 1054.28 110.853 1054.09 110.88V119H1051.11V108.84ZM1076.67 118.64C1076.17 118.787 1075.51 118.92 1074.71 119.04C1073.91 119.173 1073.07 119.24 1072.19 119.24C1071.3 119.24 1070.55 119.12 1069.95 118.88C1069.37 118.64 1068.9 118.307 1068.55 117.88C1068.21 117.44 1067.96 116.92 1067.81 116.32C1067.67 115.72 1067.59 115.06 1067.59 114.34V108.48H1070.57V113.98C1070.57 114.94 1070.7 115.633 1070.95 116.06C1071.21 116.487 1071.68 116.7 1072.37 116.7C1072.59 116.7 1072.81 116.693 1073.05 116.68C1073.29 116.653 1073.51 116.627 1073.69 116.6V108.48H1076.67V118.64ZM1082.45 119H1079.47V108.48H1082.45V119ZM1082.73 105.44C1082.73 105.987 1082.55 106.42 1082.19 106.74C1081.85 107.047 1081.43 107.2 1080.95 107.2C1080.47 107.2 1080.05 107.047 1079.69 106.74C1079.35 106.42 1079.17 105.987 1079.17 105.44C1079.17 104.893 1079.35 104.467 1079.69 104.16C1080.05 103.84 1080.47 103.68 1080.95 103.68C1081.43 103.68 1081.85 103.84 1082.19 104.16C1082.55 104.467 1082.73 104.893 1082.73 105.44ZM1085.15 105.86L1088.13 105.38V108.48H1091.71V110.96H1088.13V114.66C1088.13 115.287 1088.24 115.787 1088.45 116.16C1088.68 116.533 1089.13 116.72 1089.79 116.72C1090.11 116.72 1090.44 116.693 1090.77 116.64C1091.12 116.573 1091.43 116.487 1091.71 116.38L1092.13 118.7C1091.77 118.847 1091.37 118.973 1090.93 119.08C1090.49 119.187 1089.95 119.24 1089.31 119.24C1088.5 119.24 1087.83 119.133 1087.29 118.92C1086.76 118.693 1086.33 118.387 1086.01 118C1085.69 117.6 1085.47 117.12 1085.33 116.56C1085.21 116 1085.15 115.38 1085.15 114.7V105.86Z" fill="#08274C"/>
<circle cx="110" cy="36" r="32" stroke="#08274C" stroke-width="8"/>
<circle cx="723" cy="36" r="32" stroke="#08274C" stroke-width="8"/>
<circle cx="417" cy="36" r="32" stroke="#08274C" stroke-width="8"/>
<circle cx="1029" cy="36" r="32" stroke="#08274C" stroke-width="8"/>
<circle cx="1335" cy="36" r="32" stroke="#08274C" stroke-width="8"/>
<line x1="145" y1="37" x2="381" y2="37" stroke="#08274C" stroke-width="8"/>
<line x1="759" y1="37" x2="993" y2="37" stroke="#08274C" stroke-width="8"/>
<line x1="453" y1="37" x2="687" y2="37" stroke="#08274C" stroke-width="8"/>
<line x1="1065" y1="37" x2="1304" y2="37" stroke="#08274C" stroke-width="8"/>
</svg>
