<svg width="306" height="53" viewBox="0 0 306 53" fill="none" xmlns="http://www.w3.org/2000/svg">
<rect width="306" height="53" rx="13" fill="#D6E8F5"/>
<path d="M17.3339 30.714C17.4659 30.726 17.6159 30.738 17.7839 30.75C17.9639 30.75 18.1739 30.75 18.4139 30.75C19.8179 30.75 20.8559 30.396 21.5279 29.688C22.2119 28.98 22.5539 28.002 22.5539 26.754C22.5539 25.446 22.2299 24.456 21.5819 23.784C20.9339 23.112 19.9079 22.776 18.5039 22.776C18.3119 22.776 18.1139 22.782 17.9099 22.794C17.7059 22.794 17.5139 22.806 17.3339 22.83V30.714ZM25.4519 26.754C25.4519 27.834 25.2839 28.776 24.9479 29.58C24.6119 30.384 24.1319 31.05 23.5079 31.578C22.8959 32.106 22.1459 32.502 21.2579 32.766C20.3699 33.03 19.3739 33.162 18.2699 33.162C17.7659 33.162 17.1779 33.138 16.5059 33.09C15.8339 33.054 15.1739 32.97 14.5259 32.838V20.688C15.1739 20.568 15.8459 20.49 16.5419 20.454C17.2499 20.406 17.8559 20.382 18.3599 20.382C19.4279 20.382 20.3939 20.502 21.2579 20.742C22.1339 20.982 22.8839 21.36 23.5079 21.876C24.1319 22.392 24.6119 23.052 24.9479 23.856C25.2839 24.66 25.4519 25.626 25.4519 26.754ZM31.2354 31.128C31.4994 31.128 31.7514 31.122 31.9914 31.11C32.2314 31.098 32.4234 31.08 32.5674 31.056V29.022C32.4594 28.998 32.2974 28.974 32.0814 28.95C31.8654 28.926 31.6674 28.914 31.4874 28.914C31.2354 28.914 30.9954 28.932 30.7674 28.968C30.5514 28.992 30.3594 29.046 30.1914 29.13C30.0234 29.214 29.8914 29.328 29.7954 29.472C29.6994 29.616 29.6514 29.796 29.6514 30.012C29.6514 30.432 29.7894 30.726 30.0654 30.894C30.3534 31.05 30.7434 31.128 31.2354 31.128ZM31.0194 23.28C31.8114 23.28 32.4714 23.37 32.9994 23.55C33.5274 23.73 33.9474 23.988 34.2594 24.324C34.5834 24.66 34.8114 25.068 34.9434 25.548C35.0754 26.028 35.1414 26.562 35.1414 27.15V32.73C34.7574 32.814 34.2234 32.91 33.5394 33.018C32.8554 33.138 32.0274 33.198 31.0554 33.198C30.4434 33.198 29.8854 33.144 29.3814 33.036C28.8894 32.928 28.4634 32.754 28.1034 32.514C27.7434 32.262 27.4674 31.938 27.2754 31.542C27.0834 31.146 26.9874 30.66 26.9874 30.084C26.9874 29.532 27.0954 29.064 27.3114 28.68C27.5394 28.296 27.8394 27.99 28.2114 27.762C28.5834 27.534 29.0094 27.372 29.4894 27.276C29.9694 27.168 30.4674 27.114 30.9834 27.114C31.3314 27.114 31.6374 27.132 31.9014 27.168C32.1774 27.192 32.3994 27.228 32.5674 27.276V27.024C32.5674 26.568 32.4294 26.202 32.1534 25.926C31.8774 25.65 31.3974 25.512 30.7134 25.512C30.2574 25.512 29.8074 25.548 29.3634 25.62C28.9194 25.68 28.5354 25.77 28.2114 25.89L27.8694 23.73C28.0254 23.682 28.2174 23.634 28.4454 23.586C28.6854 23.526 28.9434 23.478 29.2194 23.442C29.4954 23.394 29.7834 23.358 30.0834 23.334C30.3954 23.298 30.7074 23.28 31.0194 23.28ZM41.1846 31.128C41.4486 31.128 41.7006 31.122 41.9406 31.11C42.1806 31.098 42.3726 31.08 42.5166 31.056V29.022C42.4086 28.998 42.2466 28.974 42.0306 28.95C41.8146 28.926 41.6166 28.914 41.4366 28.914C41.1846 28.914 40.9446 28.932 40.7166 28.968C40.5006 28.992 40.3086 29.046 40.1406 29.13C39.9726 29.214 39.8406 29.328 39.7446 29.472C39.6486 29.616 39.6006 29.796 39.6006 30.012C39.6006 30.432 39.7386 30.726 40.0146 30.894C40.3026 31.05 40.6926 31.128 41.1846 31.128ZM40.9686 23.28C41.7606 23.28 42.4206 23.37 42.9486 23.55C43.4766 23.73 43.8966 23.988 44.2086 24.324C44.5326 24.66 44.7606 25.068 44.8926 25.548C45.0246 26.028 45.0906 26.562 45.0906 27.15V32.73C44.7066 32.814 44.1726 32.91 43.4886 33.018C42.8046 33.138 41.9766 33.198 41.0046 33.198C40.3926 33.198 39.8346 33.144 39.3306 33.036C38.8386 32.928 38.4126 32.754 38.0526 32.514C37.6926 32.262 37.4166 31.938 37.2246 31.542C37.0326 31.146 36.9366 30.66 36.9366 30.084C36.9366 29.532 37.0446 29.064 37.2606 28.68C37.4886 28.296 37.7886 27.99 38.1606 27.762C38.5326 27.534 38.9586 27.372 39.4386 27.276C39.9186 27.168 40.4166 27.114 40.9326 27.114C41.2806 27.114 41.5866 27.132 41.8506 27.168C42.1266 27.192 42.3486 27.228 42.5166 27.276V27.024C42.5166 26.568 42.3786 26.202 42.1026 25.926C41.8266 25.65 41.3466 25.512 40.6626 25.512C40.2066 25.512 39.7566 25.548 39.3126 25.62C38.8686 25.68 38.4846 25.77 38.1606 25.89L37.8186 23.73C37.9746 23.682 38.1666 23.634 38.3946 23.586C38.6346 23.526 38.8926 23.478 39.1686 23.442C39.4446 23.394 39.7326 23.358 40.0326 23.334C40.3446 23.298 40.6566 23.28 40.9686 23.28ZM49.8019 27.96C49.8019 29.46 50.4079 30.21 51.6199 30.21C51.8959 30.21 52.1539 30.174 52.3939 30.102C52.6339 30.03 52.8379 29.946 53.0059 29.85V25.566C52.8739 25.542 52.7179 25.524 52.5379 25.512C52.3579 25.488 52.1479 25.476 51.9079 25.476C51.1999 25.476 50.6719 25.71 50.3239 26.178C49.9759 26.646 49.8019 27.24 49.8019 27.96ZM55.6879 31.812C55.6879 33.36 55.2919 34.506 54.4999 35.25C53.7199 36.006 52.5079 36.384 50.8639 36.384C50.2879 36.384 49.7119 36.33 49.1359 36.222C48.5599 36.126 48.0259 35.994 47.5339 35.826L48.0019 33.576C48.4219 33.744 48.8599 33.876 49.3159 33.972C49.7839 34.068 50.3119 34.116 50.8999 34.116C51.6679 34.116 52.2079 33.948 52.5199 33.612C52.8439 33.276 53.0059 32.844 53.0059 32.316V31.974C52.7179 32.106 52.4179 32.208 52.1059 32.28C51.8059 32.34 51.4759 32.37 51.1159 32.37C49.8079 32.37 48.8059 31.986 48.1099 31.218C47.4139 30.438 47.0659 29.352 47.0659 27.96C47.0659 27.264 47.1739 26.634 47.3899 26.07C47.6059 25.494 47.9179 25.002 48.3259 24.594C48.7459 24.186 49.2559 23.874 49.8559 23.658C50.4559 23.43 51.1339 23.316 51.8899 23.316C52.2139 23.316 52.5439 23.334 52.8799 23.37C53.2279 23.394 53.5699 23.43 53.9059 23.478C54.2419 23.526 54.5599 23.586 54.8599 23.658C55.1719 23.718 55.4479 23.784 55.6879 23.856V31.812ZM71.3836 28.248C71.3836 28.992 71.2756 29.676 71.0596 30.3C70.8436 30.912 70.5316 31.44 70.1236 31.884C69.7156 32.316 69.2236 32.652 68.6476 32.892C68.0836 33.132 67.4476 33.252 66.7396 33.252C66.0436 33.252 65.4076 33.132 64.8316 32.892C64.2676 32.652 63.7816 32.316 63.3736 31.884C62.9656 31.44 62.6476 30.912 62.4196 30.3C62.1916 29.676 62.0776 28.992 62.0776 28.248C62.0776 27.504 62.1916 26.826 62.4196 26.214C62.6596 25.602 62.9836 25.08 63.3916 24.648C63.8116 24.216 64.3036 23.88 64.8676 23.64C65.4436 23.4 66.0676 23.28 66.7396 23.28C67.4236 23.28 68.0476 23.4 68.6116 23.64C69.1876 23.88 69.6796 24.216 70.0876 24.648C70.4956 25.08 70.8136 25.602 71.0416 26.214C71.2696 26.826 71.3836 27.504 71.3836 28.248ZM68.6476 28.248C68.6476 27.42 68.4796 26.772 68.1436 26.304C67.8196 25.824 67.3516 25.584 66.7396 25.584C66.1276 25.584 65.6536 25.824 65.3176 26.304C64.9816 26.772 64.8136 27.42 64.8136 28.248C64.8136 29.076 64.9816 29.736 65.3176 30.228C65.6536 30.708 66.1276 30.948 66.7396 30.948C67.3516 30.948 67.8196 30.708 68.1436 30.228C68.4796 29.736 68.6476 29.076 68.6476 28.248ZM73.4612 23.856C73.9172 23.724 74.5052 23.604 75.2252 23.496C75.9452 23.376 76.7012 23.316 77.4932 23.316C78.2972 23.316 78.9632 23.424 79.4912 23.64C80.0312 23.844 80.4572 24.138 80.7692 24.522C81.0812 24.906 81.3032 25.362 81.4352 25.89C81.5672 26.418 81.6332 27.006 81.6332 27.654V33H78.9512V27.978C78.9512 27.114 78.8372 26.502 78.6092 26.142C78.3812 25.782 77.9552 25.602 77.3312 25.602C77.1392 25.602 76.9352 25.614 76.7192 25.638C76.5032 25.65 76.3112 25.668 76.1432 25.692V33H73.4612V23.856ZM86.7788 31.074C87.2708 31.074 87.6188 31.026 87.8228 30.93C88.0268 30.834 88.1288 30.648 88.1288 30.372C88.1288 30.156 87.9968 29.97 87.7328 29.814C87.4688 29.646 87.0668 29.46 86.5268 29.256C86.1068 29.1 85.7228 28.938 85.3748 28.77C85.0388 28.602 84.7508 28.404 84.5108 28.176C84.2708 27.936 84.0848 27.654 83.9528 27.33C83.8208 27.006 83.7548 26.616 83.7548 26.16C83.7548 25.272 84.0848 24.57 84.7448 24.054C85.4048 23.538 86.3108 23.28 87.4628 23.28C88.0388 23.28 88.5908 23.334 89.1188 23.442C89.6468 23.538 90.0668 23.646 90.3788 23.766L89.9108 25.854C89.5988 25.746 89.2568 25.65 88.8848 25.566C88.5248 25.482 88.1168 25.44 87.6608 25.44C86.8208 25.44 86.4008 25.674 86.4008 26.142C86.4008 26.25 86.4188 26.346 86.4548 26.43C86.4908 26.514 86.5628 26.598 86.6708 26.682C86.7788 26.754 86.9228 26.838 87.1028 26.934C87.2948 27.018 87.5348 27.114 87.8228 27.222C88.4108 27.438 88.8968 27.654 89.2808 27.87C89.6648 28.074 89.9648 28.302 90.1808 28.554C90.4088 28.794 90.5648 29.064 90.6488 29.364C90.7448 29.664 90.7928 30.012 90.7928 30.408C90.7928 31.344 90.4388 32.052 89.7308 32.532C89.0348 33.012 88.0448 33.252 86.7608 33.252C85.9208 33.252 85.2188 33.18 84.6548 33.036C84.1028 32.892 83.7188 32.772 83.5028 32.676L83.9528 30.498C84.4088 30.678 84.8768 30.822 85.3568 30.93C85.8368 31.026 86.3108 31.074 86.7788 31.074ZM105.203 32.676C104.747 32.808 104.159 32.928 103.439 33.036C102.719 33.156 101.963 33.216 101.171 33.216C100.367 33.216 99.6953 33.108 99.1553 32.892C98.6273 32.676 98.2073 32.376 97.8953 31.992C97.5833 31.596 97.3613 31.128 97.2293 30.588C97.0973 30.048 97.0313 29.454 97.0313 28.806V23.532H99.7133V28.482C99.7133 29.346 99.8273 29.97 100.055 30.354C100.283 30.738 100.709 30.93 101.333 30.93C101.525 30.93 101.729 30.924 101.945 30.912C102.161 30.888 102.353 30.864 102.521 30.84V23.532H105.203V32.676ZM110.403 33H107.721V23.532H110.403V33ZM110.655 20.796C110.655 21.288 110.493 21.678 110.169 21.966C109.857 22.242 109.485 22.38 109.053 22.38C108.621 22.38 108.243 22.242 107.919 21.966C107.607 21.678 107.451 21.288 107.451 20.796C107.451 20.304 107.607 19.92 107.919 19.644C108.243 19.356 108.621 19.212 109.053 19.212C109.485 19.212 109.857 19.356 110.169 19.644C110.493 19.92 110.655 20.304 110.655 20.796ZM112.834 21.174L115.516 20.742V23.532H118.738V25.764H115.516V29.094C115.516 29.658 115.612 30.108 115.804 30.444C116.008 30.78 116.41 30.948 117.01 30.948C117.298 30.948 117.592 30.924 117.892 30.876C118.204 30.816 118.486 30.738 118.738 30.642L119.116 32.73C118.792 32.862 118.432 32.976 118.036 33.072C117.64 33.168 117.154 33.216 116.578 33.216C115.846 33.216 115.24 33.12 114.76 32.928C114.28 32.724 113.896 32.448 113.608 32.1C113.32 31.74 113.116 31.308 112.996 30.804C112.888 30.3 112.834 29.742 112.834 29.13V21.174ZM130.448 27.978C130.448 27.114 130.334 26.502 130.106 26.142C129.89 25.782 129.512 25.602 128.972 25.602C128.804 25.602 128.63 25.614 128.45 25.638C128.27 25.65 128.096 25.668 127.928 25.692V33H125.246V23.856C125.474 23.796 125.738 23.736 126.038 23.676C126.35 23.604 126.674 23.544 127.01 23.496C127.358 23.436 127.712 23.394 128.072 23.37C128.432 23.334 128.786 23.316 129.134 23.316C129.818 23.316 130.37 23.406 130.79 23.586C131.222 23.754 131.576 23.958 131.852 24.198C132.236 23.922 132.674 23.706 133.166 23.55C133.67 23.394 134.132 23.316 134.552 23.316C135.308 23.316 135.926 23.424 136.406 23.64C136.898 23.844 137.288 24.138 137.576 24.522C137.864 24.906 138.062 25.362 138.17 25.89C138.278 26.418 138.332 27.006 138.332 27.654V33H135.65V27.978C135.65 27.114 135.536 26.502 135.308 26.142C135.092 25.782 134.714 25.602 134.174 25.602C134.03 25.602 133.826 25.638 133.562 25.71C133.31 25.782 133.1 25.872 132.932 25.98C133.016 26.256 133.07 26.55 133.094 26.862C133.118 27.162 133.13 27.486 133.13 27.834V33H130.448V27.978ZM140.318 28.338C140.318 27.498 140.444 26.766 140.696 26.142C140.96 25.506 141.302 24.978 141.722 24.558C142.142 24.138 142.622 23.82 143.162 23.604C143.714 23.388 144.278 23.28 144.854 23.28C146.198 23.28 147.26 23.694 148.04 24.522C148.82 25.338 149.21 26.544 149.21 28.14C149.21 28.296 149.204 28.47 149.192 28.662C149.18 28.842 149.168 29.004 149.156 29.148H143.072C143.132 29.7 143.39 30.138 143.846 30.462C144.302 30.786 144.914 30.948 145.682 30.948C146.174 30.948 146.654 30.906 147.122 30.822C147.602 30.726 147.992 30.612 148.292 30.48L148.652 32.658C148.508 32.73 148.316 32.802 148.076 32.874C147.836 32.946 147.566 33.006 147.266 33.054C146.978 33.114 146.666 33.162 146.33 33.198C145.994 33.234 145.658 33.252 145.322 33.252C144.47 33.252 143.726 33.126 143.09 32.874C142.466 32.622 141.944 32.28 141.524 31.848C141.116 31.404 140.81 30.882 140.606 30.282C140.414 29.682 140.318 29.034 140.318 28.338ZM146.618 27.312C146.606 27.084 146.564 26.862 146.492 26.646C146.432 26.43 146.33 26.238 146.186 26.07C146.054 25.902 145.88 25.764 145.664 25.656C145.46 25.548 145.202 25.494 144.89 25.494C144.59 25.494 144.332 25.548 144.116 25.656C143.9 25.752 143.72 25.884 143.576 26.052C143.432 26.22 143.318 26.418 143.234 26.646C143.162 26.862 143.108 27.084 143.072 27.312H146.618ZM151.19 21.174L153.872 20.742V23.532H157.094V25.764H153.872V29.094C153.872 29.658 153.968 30.108 154.16 30.444C154.364 30.78 154.766 30.948 155.366 30.948C155.654 30.948 155.948 30.924 156.248 30.876C156.56 30.816 156.842 30.738 157.094 30.642L157.472 32.73C157.148 32.862 156.788 32.976 156.392 33.072C155.996 33.168 155.51 33.216 154.934 33.216C154.202 33.216 153.596 33.12 153.116 32.928C152.636 32.724 152.252 32.448 151.964 32.1C151.676 31.74 151.472 31.308 151.352 30.804C151.244 30.3 151.19 29.742 151.19 29.13V21.174ZM162.72 36.33C162.552 36.33 162.306 36.312 161.982 36.276C161.646 36.24 161.334 36.174 161.046 36.078L161.406 33.9C161.586 33.96 161.754 34.002 161.91 34.026C162.054 34.05 162.24 34.062 162.468 34.062C162.888 34.062 163.182 33.936 163.35 33.684C163.518 33.432 163.602 33.066 163.602 32.586V23.532H166.284V32.658C166.284 33.906 165.978 34.83 165.366 35.43C164.754 36.03 163.872 36.33 162.72 36.33ZM166.536 20.796C166.536 21.288 166.374 21.678 166.05 21.966C165.738 22.242 165.366 22.38 164.934 22.38C164.502 22.38 164.124 22.242 163.8 21.966C163.488 21.678 163.332 21.288 163.332 20.796C163.332 20.304 163.488 19.92 163.8 19.644C164.124 19.356 164.502 19.212 164.934 19.212C165.366 19.212 165.738 19.356 166.05 19.644C166.374 19.92 166.536 20.304 166.536 20.796ZM177.661 28.248C177.661 28.992 177.553 29.676 177.337 30.3C177.121 30.912 176.809 31.44 176.401 31.884C175.993 32.316 175.501 32.652 174.925 32.892C174.361 33.132 173.725 33.252 173.017 33.252C172.321 33.252 171.685 33.132 171.109 32.892C170.545 32.652 170.059 32.316 169.651 31.884C169.243 31.44 168.925 30.912 168.697 30.3C168.469 29.676 168.355 28.992 168.355 28.248C168.355 27.504 168.469 26.826 168.697 26.214C168.937 25.602 169.261 25.08 169.669 24.648C170.089 24.216 170.581 23.88 171.145 23.64C171.721 23.4 172.345 23.28 173.017 23.28C173.701 23.28 174.325 23.4 174.889 23.64C175.465 23.88 175.957 24.216 176.365 24.648C176.773 25.08 177.091 25.602 177.319 26.214C177.547 26.826 177.661 27.504 177.661 28.248ZM174.925 28.248C174.925 27.42 174.757 26.772 174.421 26.304C174.097 25.824 173.629 25.584 173.017 25.584C172.405 25.584 171.931 25.824 171.595 26.304C171.259 26.772 171.091 27.42 171.091 28.248C171.091 29.076 171.259 29.736 171.595 30.228C171.931 30.708 172.405 30.948 173.017 30.948C173.629 30.948 174.097 30.708 174.421 30.228C174.757 29.736 174.925 29.076 174.925 28.248ZM187.821 32.676C187.365 32.808 186.777 32.928 186.057 33.036C185.337 33.156 184.581 33.216 183.789 33.216C182.985 33.216 182.313 33.108 181.773 32.892C181.245 32.676 180.825 32.376 180.513 31.992C180.201 31.596 179.979 31.128 179.847 30.588C179.715 30.048 179.649 29.454 179.649 28.806V23.532H182.331V28.482C182.331 29.346 182.445 29.97 182.673 30.354C182.901 30.738 183.327 30.93 183.951 30.93C184.143 30.93 184.347 30.924 184.563 30.912C184.779 30.888 184.971 30.864 185.139 30.84V23.532H187.821V32.676ZM195.922 27.564C195.682 28.476 195.424 29.382 195.148 30.282C194.884 31.182 194.602 32.088 194.302 33H192.214C191.998 32.496 191.764 31.896 191.512 31.2C191.26 30.504 190.996 29.748 190.72 28.932C190.456 28.104 190.18 27.234 189.892 26.322C189.616 25.398 189.346 24.468 189.082 23.532H191.908C192.004 23.964 192.106 24.438 192.214 24.954C192.334 25.458 192.454 25.98 192.574 26.52C192.706 27.06 192.838 27.606 192.97 28.158C193.114 28.698 193.258 29.22 193.402 29.724C193.558 29.196 193.708 28.656 193.852 28.104C194.008 27.552 194.152 27.012 194.284 26.484C194.428 25.944 194.56 25.428 194.68 24.936C194.812 24.432 194.926 23.964 195.022 23.532H196.966C197.062 23.964 197.17 24.432 197.29 24.936C197.41 25.428 197.536 25.944 197.668 26.484C197.8 27.012 197.938 27.552 198.082 28.104C198.226 28.656 198.376 29.196 198.532 29.724C198.676 29.22 198.82 28.698 198.964 28.158C199.108 27.606 199.24 27.06 199.36 26.52C199.492 25.98 199.612 25.458 199.72 24.954C199.84 24.438 199.948 23.964 200.044 23.532H202.834C202.57 24.468 202.294 25.398 202.006 26.322C201.73 27.234 201.454 28.104 201.178 28.932C200.914 29.748 200.65 30.504 200.386 31.2C200.134 31.896 199.9 32.496 199.684 33H197.596C197.296 32.088 197.002 31.182 196.714 30.282C196.426 29.382 196.162 28.476 195.922 27.564ZM211.176 33C210.564 31.8 209.94 30.396 209.304 28.788C208.68 27.18 208.086 25.428 207.522 23.532H210.366C210.486 24 210.624 24.51 210.78 25.062C210.948 25.602 211.116 26.154 211.284 26.718C211.464 27.27 211.638 27.81 211.806 28.338C211.986 28.866 212.16 29.346 212.328 29.778C212.484 29.346 212.652 28.866 212.832 28.338C213.012 27.81 213.186 27.27 213.354 26.718C213.534 26.154 213.702 25.602 213.858 25.062C214.026 24.51 214.17 24 214.29 23.532H217.062C216.498 25.428 215.898 27.18 215.262 28.788C214.638 30.396 214.02 31.8 213.408 33H211.176ZM224.204 25.908C223.964 25.848 223.682 25.788 223.358 25.728C223.034 25.656 222.686 25.62 222.314 25.62C222.146 25.62 221.942 25.638 221.702 25.674C221.474 25.698 221.3 25.728 221.18 25.764V33H218.498V24.036C218.978 23.868 219.542 23.712 220.19 23.568C220.85 23.412 221.582 23.334 222.386 23.334C222.53 23.334 222.704 23.346 222.908 23.37C223.112 23.382 223.316 23.406 223.52 23.442C223.724 23.466 223.928 23.502 224.132 23.55C224.336 23.586 224.51 23.634 224.654 23.694L224.204 25.908ZM229.534 31.128C229.798 31.128 230.05 31.122 230.29 31.11C230.53 31.098 230.722 31.08 230.866 31.056V29.022C230.758 28.998 230.596 28.974 230.38 28.95C230.164 28.926 229.966 28.914 229.786 28.914C229.534 28.914 229.294 28.932 229.066 28.968C228.85 28.992 228.658 29.046 228.49 29.13C228.322 29.214 228.19 29.328 228.094 29.472C227.998 29.616 227.95 29.796 227.95 30.012C227.95 30.432 228.088 30.726 228.364 30.894C228.652 31.05 229.042 31.128 229.534 31.128ZM229.318 23.28C230.11 23.28 230.77 23.37 231.298 23.55C231.826 23.73 232.246 23.988 232.558 24.324C232.882 24.66 233.11 25.068 233.242 25.548C233.374 26.028 233.44 26.562 233.44 27.15V32.73C233.056 32.814 232.522 32.91 231.838 33.018C231.154 33.138 230.326 33.198 229.354 33.198C228.742 33.198 228.184 33.144 227.68 33.036C227.188 32.928 226.762 32.754 226.402 32.514C226.042 32.262 225.766 31.938 225.574 31.542C225.382 31.146 225.286 30.66 225.286 30.084C225.286 29.532 225.394 29.064 225.61 28.68C225.838 28.296 226.138 27.99 226.51 27.762C226.882 27.534 227.308 27.372 227.788 27.276C228.268 27.168 228.766 27.114 229.282 27.114C229.63 27.114 229.936 27.132 230.2 27.168C230.476 27.192 230.698 27.228 230.866 27.276V27.024C230.866 26.568 230.728 26.202 230.452 25.926C230.176 25.65 229.696 25.512 229.012 25.512C228.556 25.512 228.106 25.548 227.662 25.62C227.218 25.68 226.834 25.77 226.51 25.89L226.168 23.73C226.324 23.682 226.516 23.634 226.744 23.586C226.984 23.526 227.242 23.478 227.518 23.442C227.794 23.394 228.082 23.358 228.382 23.334C228.694 23.298 229.006 23.28 229.318 23.28ZM239.483 31.128C239.747 31.128 239.999 31.122 240.239 31.11C240.479 31.098 240.671 31.08 240.815 31.056V29.022C240.707 28.998 240.545 28.974 240.329 28.95C240.113 28.926 239.915 28.914 239.735 28.914C239.483 28.914 239.243 28.932 239.015 28.968C238.799 28.992 238.607 29.046 238.439 29.13C238.271 29.214 238.139 29.328 238.043 29.472C237.947 29.616 237.899 29.796 237.899 30.012C237.899 30.432 238.037 30.726 238.313 30.894C238.601 31.05 238.991 31.128 239.483 31.128ZM239.267 23.28C240.059 23.28 240.719 23.37 241.247 23.55C241.775 23.73 242.195 23.988 242.507 24.324C242.831 24.66 243.059 25.068 243.191 25.548C243.323 26.028 243.389 26.562 243.389 27.15V32.73C243.005 32.814 242.471 32.91 241.787 33.018C241.103 33.138 240.275 33.198 239.303 33.198C238.691 33.198 238.133 33.144 237.629 33.036C237.137 32.928 236.711 32.754 236.351 32.514C235.991 32.262 235.715 31.938 235.523 31.542C235.331 31.146 235.235 30.66 235.235 30.084C235.235 29.532 235.343 29.064 235.559 28.68C235.787 28.296 236.087 27.99 236.459 27.762C236.831 27.534 237.257 27.372 237.737 27.276C238.217 27.168 238.715 27.114 239.231 27.114C239.579 27.114 239.885 27.132 240.149 27.168C240.425 27.192 240.647 27.228 240.815 27.276V27.024C240.815 26.568 240.677 26.202 240.401 25.926C240.125 25.65 239.645 25.512 238.961 25.512C238.505 25.512 238.055 25.548 237.611 25.62C237.167 25.68 236.783 25.77 236.459 25.89L236.117 23.73C236.273 23.682 236.465 23.634 236.693 23.586C236.933 23.526 237.191 23.478 237.467 23.442C237.743 23.394 238.031 23.358 238.331 23.334C238.643 23.298 238.955 23.28 239.267 23.28ZM248.101 27.96C248.101 29.46 248.707 30.21 249.919 30.21C250.195 30.21 250.453 30.174 250.693 30.102C250.933 30.03 251.137 29.946 251.305 29.85V25.566C251.173 25.542 251.017 25.524 250.837 25.512C250.657 25.488 250.447 25.476 250.207 25.476C249.499 25.476 248.971 25.71 248.623 26.178C248.275 26.646 248.101 27.24 248.101 27.96ZM253.987 31.812C253.987 33.36 253.591 34.506 252.799 35.25C252.019 36.006 250.807 36.384 249.163 36.384C248.587 36.384 248.011 36.33 247.435 36.222C246.859 36.126 246.325 35.994 245.833 35.826L246.301 33.576C246.721 33.744 247.159 33.876 247.615 33.972C248.083 34.068 248.611 34.116 249.199 34.116C249.967 34.116 250.507 33.948 250.819 33.612C251.143 33.276 251.305 32.844 251.305 32.316V31.974C251.017 32.106 250.717 32.208 250.405 32.28C250.105 32.34 249.775 32.37 249.415 32.37C248.107 32.37 247.105 31.986 246.409 31.218C245.713 30.438 245.365 29.352 245.365 27.96C245.365 27.264 245.473 26.634 245.689 26.07C245.905 25.494 246.217 25.002 246.625 24.594C247.045 24.186 247.555 23.874 248.155 23.658C248.755 23.43 249.433 23.316 250.189 23.316C250.513 23.316 250.843 23.334 251.179 23.37C251.527 23.394 251.869 23.43 252.205 23.478C252.541 23.526 252.859 23.586 253.159 23.658C253.471 23.718 253.747 23.784 253.987 23.856V31.812ZM259.22 31.074C259.712 31.074 260.06 31.026 260.264 30.93C260.468 30.834 260.57 30.648 260.57 30.372C260.57 30.156 260.438 29.97 260.174 29.814C259.91 29.646 259.508 29.46 258.968 29.256C258.548 29.1 258.164 28.938 257.816 28.77C257.48 28.602 257.192 28.404 256.952 28.176C256.712 27.936 256.526 27.654 256.394 27.33C256.262 27.006 256.196 26.616 256.196 26.16C256.196 25.272 256.526 24.57 257.186 24.054C257.846 23.538 258.752 23.28 259.904 23.28C260.48 23.28 261.032 23.334 261.56 23.442C262.088 23.538 262.508 23.646 262.82 23.766L262.352 25.854C262.04 25.746 261.698 25.65 261.326 25.566C260.966 25.482 260.558 25.44 260.102 25.44C259.262 25.44 258.842 25.674 258.842 26.142C258.842 26.25 258.86 26.346 258.896 26.43C258.932 26.514 259.004 26.598 259.112 26.682C259.22 26.754 259.364 26.838 259.544 26.934C259.736 27.018 259.976 27.114 260.264 27.222C260.852 27.438 261.338 27.654 261.722 27.87C262.106 28.074 262.406 28.302 262.622 28.554C262.85 28.794 263.006 29.064 263.09 29.364C263.186 29.664 263.234 30.012 263.234 30.408C263.234 31.344 262.88 32.052 262.172 32.532C261.476 33.012 260.486 33.252 259.202 33.252C258.362 33.252 257.66 33.18 257.096 33.036C256.544 32.892 256.16 32.772 255.944 32.676L256.394 30.498C256.85 30.678 257.318 30.822 257.798 30.93C258.278 31.026 258.752 31.074 259.22 31.074ZM265.149 21.174L267.831 20.742V23.532H271.053V25.764H267.831V29.094C267.831 29.658 267.927 30.108 268.119 30.444C268.323 30.78 268.725 30.948 269.325 30.948C269.613 30.948 269.907 30.924 270.207 30.876C270.519 30.816 270.801 30.738 271.053 30.642L271.431 32.73C271.107 32.862 270.747 32.976 270.351 33.072C269.955 33.168 269.469 33.216 268.893 33.216C268.161 33.216 267.555 33.12 267.075 32.928C266.595 32.724 266.211 32.448 265.923 32.1C265.635 31.74 265.431 31.308 265.311 30.804C265.203 30.3 265.149 29.742 265.149 29.13V21.174ZM281.319 32.676C280.863 32.808 280.275 32.928 279.555 33.036C278.835 33.156 278.079 33.216 277.287 33.216C276.483 33.216 275.811 33.108 275.271 32.892C274.743 32.676 274.323 32.376 274.011 31.992C273.699 31.596 273.477 31.128 273.345 30.588C273.213 30.048 273.147 29.454 273.147 28.806V23.532H275.829V28.482C275.829 29.346 275.943 29.97 276.171 30.354C276.399 30.738 276.825 30.93 277.449 30.93C277.641 30.93 277.845 30.924 278.061 30.912C278.277 30.888 278.469 30.864 278.637 30.84V23.532H281.319V32.676ZM286.518 26.952C286.782 26.664 287.052 26.364 287.328 26.052C287.616 25.74 287.892 25.434 288.156 25.134C288.42 24.822 288.666 24.528 288.894 24.252C289.134 23.976 289.338 23.736 289.506 23.532H292.692C292.056 24.264 291.432 24.966 290.82 25.638C290.22 26.298 289.56 26.982 288.84 27.69C289.2 28.014 289.572 28.404 289.956 28.86C290.34 29.304 290.712 29.766 291.072 30.246C291.432 30.726 291.762 31.206 292.062 31.686C292.362 32.166 292.614 32.604 292.818 33H289.74C289.548 32.688 289.326 32.346 289.074 31.974C288.834 31.59 288.576 31.212 288.3 30.84C288.024 30.456 287.73 30.09 287.418 29.742C287.118 29.394 286.818 29.1 286.518 28.86V33H283.836V19.464L286.518 19.032V26.952Z" fill="#08274C"/>
</svg>
